<?xml version="1.0" encoding="UTF-8" standalone="no"?>
<!DOCTYPE svg PUBLIC "-//W3C//DTD SVG 1.1//EN"
 "http://www.w3.org/Graphics/SVG/1.1/DTD/svg11.dtd">
<!-- Generated by graphviz version 14.0.0 (20250921.2048)
 -->
<!-- Title: g Pages: 1 -->
<svg width="2237pt" height="601pt"
 viewBox="0.00 0.00 2237.00 601.00" xmlns="http://www.w3.org/2000/svg" xmlns:xlink="http://www.w3.org/1999/xlink">
<g id="graph0" class="graph" transform="scale(1 1) rotate(0) translate(4 596.5)">
<title>g</title>
<polygon fill="white" stroke="none" points="-4,4 -4,-596.5 2232.73,-596.5 2232.73,4 -4,4"/>
<!-- extension -->
<g id="node1" class="node">
<title>extension</title>
<ellipse fill="none" stroke="black" cx="46.23" cy="-187.5" rx="46.23" ry="18"/>
<text xml:space="preserve" text-anchor="middle" x="46.23" y="-182.45" font-family="Times New Roman,serif" font-size="14.00">extension</text>
</g>
<!-- shape -->
<g id="node2" class="node">
<title>shape</title>
<ellipse fill="none" stroke="black" cx="267.23" cy="-18" rx="31.9" ry="18"/>
<text xml:space="preserve" text-anchor="middle" x="267.23" y="-12.95" font-family="Times New Roman,serif" font-size="14.00">shape</text>
</g>
<!-- extension&#45;&gt;shape -->
<g id="edge1" class="edge">
<title>extension&#45;&gt;shape</title>
<path fill="none" stroke="black" d="M37.6,-160.98C29.4,-131.54 21.72,-83.42 46.98,-54 69.34,-27.96 166.36,-21.2 223.91,-19.51"/>
<ellipse fill="none" stroke="black" cx="38.84" cy="-165.17" rx="4" ry="4"/>
<polygon fill="black" stroke="black" points="223.78,-23.01 233.69,-19.26 223.61,-16.01 223.78,-23.01"/>
<text xml:space="preserve" text-anchor="middle" x="150.11" y="-106.7" font-family="Courier,monospace" font-size="14.00">extension &#45; shape</text>
<text xml:space="preserve" text-anchor="middle" x="150.11" y="-90.2" font-family="Courier,monospace" font-size="14.00">[&#45;&#45;&gt;]:0.16666666666666666</text>
<text xml:space="preserve" text-anchor="middle" x="150.11" y="-73.7" font-family="Courier,monospace" font-size="14.00">[o&#45;&gt;]:0.6666666666666666</text>
<text xml:space="preserve" text-anchor="middle" x="150.11" y="-57.2" font-family="Courier,monospace" font-size="14.00">[&lt;&#45;&#45;]:0.16666666666666666</text>
</g>
<!-- eccentricity -->
<g id="node3" class="node">
<title>eccentricity</title>
<ellipse fill="none" stroke="black" cx="284.23" cy="-405" rx="53.91" ry="18"/>
<text xml:space="preserve" text-anchor="middle" x="284.23" y="-399.95" font-family="Times New Roman,serif" font-size="14.00">eccentricity</text>
</g>
<!-- eccentricity&#45;&gt;shape -->
<g id="edge7" class="edge">
<title>eccentricity&#45;&gt;shape</title>
<path fill="none" stroke="black" d="M282.87,-377.98C281.17,-345.13 278.22,-286.88 275.98,-237 272.94,-169.13 269.87,-89.34 268.3,-47.66"/>
<ellipse fill="none" stroke="black" cx="283.1" cy="-382.44" rx="4" ry="4"/>
<polygon fill="black" stroke="black" points="271.8,-47.62 267.93,-37.75 264.8,-47.88 271.8,-47.62"/>
<text xml:space="preserve" text-anchor="middle" x="395.61" y="-223.7" font-family="Courier,monospace" font-size="14.00">eccentricity &#45; shape</text>
<text xml:space="preserve" text-anchor="middle" x="395.61" y="-207.2" font-family="Courier,monospace" font-size="14.00">[&lt;&#45;&#45;]:0.16666666666666666</text>
<text xml:space="preserve" text-anchor="middle" x="395.61" y="-190.7" font-family="Courier,monospace" font-size="14.00">[o&#45;&gt;]:0.3333333333333333</text>
<text xml:space="preserve" text-anchor="middle" x="395.61" y="-174.2" font-family="Courier,monospace" font-size="14.00">[&lt;&#45;&gt;]:0.16666666666666666</text>
<text xml:space="preserve" text-anchor="middle" x="395.61" y="-157.7" font-family="Courier,monospace" font-size="14.00">[&#45;&#45;&gt;]:0.16666666666666666</text>
<text xml:space="preserve" text-anchor="middle" x="395.61" y="-141.2" font-family="Courier,monospace" font-size="14.00">[no edge]:0.16666666666666666</text>
</g>
<!-- kl_unif -->
<g id="node4" class="node">
<title>kl_unif</title>
<ellipse fill="none" stroke="black" cx="562.23" cy="-187.5" rx="37.53" ry="18"/>
<text xml:space="preserve" text-anchor="middle" x="562.23" y="-182.45" font-family="Times New Roman,serif" font-size="14.00">kl_unif</text>
</g>
<!-- eccentricity&#45;&gt;kl_unif -->
<g id="edge2" class="edge">
<title>eccentricity&#45;&gt;kl_unif</title>
<path fill="none" stroke="black" d="M288.59,-375.53C295.51,-340.96 312.51,-283.7 351.98,-255 409.24,-213.37 445.95,-266.63 510.23,-237 525.93,-229.77 540.01,-215.94 549.55,-204.89"/>
<polygon fill="black" stroke="black" points="285.17,-374.78 286.82,-385.25 292.06,-376.04 285.17,-374.78"/>
<text xml:space="preserve" text-anchor="middle" x="455.11" y="-324.2" font-family="Courier,monospace" font-size="14.00">eccentricity &#45; kl_unif</text>
<text xml:space="preserve" text-anchor="middle" x="455.11" y="-307.7" font-family="Courier,monospace" font-size="14.00">[&lt;&#45;&gt;]:0.16666666666666666</text>
<text xml:space="preserve" text-anchor="middle" x="455.11" y="-291.2" font-family="Courier,monospace" font-size="14.00">[&lt;&#45;&#45;]:0.5</text>
<text xml:space="preserve" text-anchor="middle" x="455.11" y="-274.7" font-family="Courier,monospace" font-size="14.00">[o&#45;o]:0.3333333333333333</text>
</g>
<!-- kl_unif&#45;&gt;shape -->
<g id="edge4" class="edge">
<title>kl_unif&#45;&gt;shape</title>
<path fill="none" stroke="black" d="M539.68,-162.72C530.97,-154.29 520.6,-145.14 510.23,-138 442.25,-91.19 353.11,-52.58 303.89,-32.96"/>
<polygon fill="black" stroke="black" points="537.16,-165.14 546.71,-169.73 542.1,-160.19 537.16,-165.14"/>
<polygon fill="black" stroke="black" points="305.42,-29.8 294.84,-29.4 302.86,-36.32 305.42,-29.8"/>
<text xml:space="preserve" text-anchor="middle" x="578.36" y="-98.45" font-family="Courier,monospace" font-size="14.00">kl_unif &#45; shape</text>
<text xml:space="preserve" text-anchor="middle" x="578.36" y="-81.95" font-family="Courier,monospace" font-size="14.00">[o&#45;&gt;]:0.3333333333333333</text>
<text xml:space="preserve" text-anchor="middle" x="578.36" y="-65.45" font-family="Courier,monospace" font-size="14.00">[&lt;&#45;&gt;]:0.6666666666666666</text>
</g>
<!-- meanImprovements -->
<g id="node5" class="node">
<title>meanImprovements</title>
<ellipse fill="none" stroke="black" cx="955.23" cy="-574.5" rx="85.64" ry="18"/>
<text xml:space="preserve" text-anchor="middle" x="955.23" y="-569.45" font-family="Times New Roman,serif" font-size="14.00">meanImprovements</text>
</g>
<!-- meanImprovementsMut -->
<g id="node6" class="node">
<title>meanImprovementsMut</title>
<ellipse fill="none" stroke="black" cx="812.23" cy="-405" rx="101.51" ry="18"/>
<text xml:space="preserve" text-anchor="middle" x="812.23" y="-399.95" font-family="Times New Roman,serif" font-size="14.00">meanImprovementsMut</text>
</g>
<!-- meanImprovements&#45;&gt;meanImprovementsMut -->
<g id="edge3" class="edge">
<title>meanImprovements&#45;&gt;meanImprovementsMut</title>
<path fill="none" stroke="black" d="M870.11,-564.93C836.34,-559.62 803.05,-551.28 792.73,-538.5 768.66,-508.69 783.66,-462.37 797.4,-433.13"/>
<ellipse fill="none" stroke="black" cx="874.25" cy="-565.55" rx="4" ry="4"/>
<polygon fill="black" stroke="black" points="800.34,-435.07 801.66,-424.56 794.07,-431.96 800.34,-435.07"/>
<text xml:space="preserve" text-anchor="middle" x="949.48" y="-525.2" font-family="Courier,monospace" font-size="14.00">meanImprovements &#45; meanImprovementsMut</text>
<text xml:space="preserve" text-anchor="middle" x="949.48" y="-508.7" font-family="Courier,monospace" font-size="14.00">[o&#45;&gt;]:0.5</text>
<text xml:space="preserve" text-anchor="middle" x="949.48" y="-492.2" font-family="Courier,monospace" font-size="14.00">[&#45;&#45;&gt;]:0.16666666666666666</text>
<text xml:space="preserve" text-anchor="middle" x="949.48" y="-475.7" font-family="Courier,monospace" font-size="14.00">[&lt;&#45;o]:0.16666666666666666</text>
<text xml:space="preserve" text-anchor="middle" x="949.48" y="-459.2" font-family="Courier,monospace" font-size="14.00">[no edge]:0.16666666666666666</text>
</g>
<!-- varPop -->
<g id="node9" class="node">
<title>varPop</title>
<ellipse fill="none" stroke="black" cx="1120.23" cy="-187.5" rx="37.02" ry="18"/>
<text xml:space="preserve" text-anchor="middle" x="1120.23" y="-182.45" font-family="Times New Roman,serif" font-size="14.00">varPop</text>
</g>
<!-- meanImprovements&#45;&gt;varPop -->
<g id="edge8" class="edge">
<title>meanImprovements&#45;&gt;varPop</title>
<path fill="none" stroke="black" d="M1037.23,-563.48C1067.51,-557.99 1096.78,-549.92 1106.23,-538.5 1146.77,-489.54 1130.44,-287.13 1123.08,-214.55"/>
<ellipse fill="none" stroke="black" cx="1033.11" cy="-564.19" rx="4" ry="4"/>
<ellipse fill="none" stroke="black" cx="1122.66" cy="-210.45" rx="4" ry="4"/>
<text xml:space="preserve" text-anchor="middle" x="1235.74" y="-424.7" font-family="Courier,monospace" font-size="14.00">meanImprovements &#45; varPop</text>
<text xml:space="preserve" text-anchor="middle" x="1235.74" y="-408.2" font-family="Courier,monospace" font-size="14.00">[&#45;&#45;&gt;]:0.16666666666666666</text>
<text xml:space="preserve" text-anchor="middle" x="1235.74" y="-391.7" font-family="Courier,monospace" font-size="14.00">[o&#45;o]:0.5</text>
<text xml:space="preserve" text-anchor="middle" x="1235.74" y="-375.2" font-family="Courier,monospace" font-size="14.00">[&lt;&#45;o]:0.3333333333333333</text>
</g>
<!-- meanImprovementsMut&#45;&gt;varPop -->
<g id="edge9" class="edge">
<title>meanImprovementsMut&#45;&gt;varPop</title>
<path fill="none" stroke="black" d="M816.51,-375.99C823.13,-342.37 839.09,-286.57 875.23,-255 931.4,-205.94 1020.36,-192.68 1074.22,-189.33"/>
<polygon fill="black" stroke="black" points="813.15,-374.93 814.81,-385.4 820.03,-376.18 813.15,-374.93"/>
<ellipse fill="none" stroke="black" cx="1078.71" cy="-189.09" rx="4" ry="4"/>
<text xml:space="preserve" text-anchor="middle" x="990.73" y="-332.45" font-family="Courier,monospace" font-size="14.00">meanImprovementsMut &#45; varPop</text>
<text xml:space="preserve" text-anchor="middle" x="990.73" y="-315.95" font-family="Courier,monospace" font-size="14.00">[o&#45;o]:0.16666666666666666</text>
<text xml:space="preserve" text-anchor="middle" x="990.73" y="-299.45" font-family="Courier,monospace" font-size="14.00">[&lt;&#45;&#45;]:0.16666666666666666</text>
<text xml:space="preserve" text-anchor="middle" x="990.73" y="-282.95" font-family="Courier,monospace" font-size="14.00">[&lt;&#45;o]:0.3333333333333333</text>
<text xml:space="preserve" text-anchor="middle" x="990.73" y="-266.45" font-family="Courier,monospace" font-size="14.00">[no edge]:0.3333333333333333</text>
</g>
<!-- avgF -->
<g id="node7" class="node">
<title>avgF</title>
<ellipse fill="none" stroke="black" cx="562.23" cy="-405" rx="29.34" ry="18"/>
<text xml:space="preserve" text-anchor="middle" x="562.23" y="-399.95" font-family="Times New Roman,serif" font-size="14.00">avgF</text>
</g>
<!-- avgF&#45;&gt;kl_unif -->
<g id="edge5" class="edge">
<title>avgF&#45;&gt;kl_unif</title>
<path fill="none" stroke="black" d="M562.23,-377.94C562.23,-337.35 562.23,-259.36 562.23,-217.22"/>
<ellipse fill="none" stroke="black" cx="562.23" cy="-382.23" rx="4" ry="4"/>
<polygon fill="black" stroke="black" points="565.73,-217.37 562.23,-207.37 558.73,-217.37 565.73,-217.37"/>
<text xml:space="preserve" text-anchor="middle" x="665.36" y="-324.2" font-family="Courier,monospace" font-size="14.00">avgF &#45; kl_unif</text>
<text xml:space="preserve" text-anchor="middle" x="665.36" y="-307.7" font-family="Courier,monospace" font-size="14.00">[o&#45;o]:0.3333333333333333</text>
<text xml:space="preserve" text-anchor="middle" x="665.36" y="-291.2" font-family="Courier,monospace" font-size="14.00">[&lt;&#45;&#45;]:0.16666666666666666</text>
<text xml:space="preserve" text-anchor="middle" x="665.36" y="-274.7" font-family="Courier,monospace" font-size="14.00">[o&#45;&gt;]:0.5</text>
</g>
<!-- avgCR -->
<g id="node8" class="node">
<title>avgCR</title>
<ellipse fill="none" stroke="black" cx="562.23" cy="-574.5" rx="36.51" ry="18"/>
<text xml:space="preserve" text-anchor="middle" x="562.23" y="-569.45" font-family="Times New Roman,serif" font-size="14.00">avgCR</text>
</g>
<!-- avgCR&#45;&gt;avgF -->
<g id="edge6" class="edge">
<title>avgCR&#45;&gt;avgF</title>
<path fill="none" stroke="black" d="M562.23,-547.61C562.23,-516.22 562.23,-463.62 562.23,-432.12"/>
<ellipse fill="none" stroke="black" cx="562.23" cy="-551.71" rx="4" ry="4"/>
<ellipse fill="none" stroke="black" cx="562.23" cy="-427.95" rx="4" ry="4"/>
<text xml:space="preserve" text-anchor="middle" x="665.36" y="-516.95" font-family="Courier,monospace" font-size="14.00">avgCR &#45; avgF</text>
<text xml:space="preserve" text-anchor="middle" x="665.36" y="-500.45" font-family="Courier,monospace" font-size="14.00">[&lt;&#45;&#45;]:0.16666666666666666</text>
<text xml:space="preserve" text-anchor="middle" x="665.36" y="-483.95" font-family="Courier,monospace" font-size="14.00">[o&#45;o]:0.5</text>
<text xml:space="preserve" text-anchor="middle" x="665.36" y="-467.45" font-family="Courier,monospace" font-size="14.00">[&lt;&#45;o]:0.3333333333333333</text>
</g>
<!-- it -->
<g id="node10" class="node">
<title>it</title>
<ellipse fill="none" stroke="black" cx="1596.23" cy="-574.5" rx="27" ry="18"/>
<text xml:space="preserve" text-anchor="middle" x="1596.23" y="-569.45" font-family="Times New Roman,serif" font-size="14.00">it</text>
</g>
<!-- stdF -->
<g id="node11" class="node">
<title>stdF</title>
<ellipse fill="none" stroke="black" cx="1465.23" cy="-405" rx="27" ry="18"/>
<text xml:space="preserve" text-anchor="middle" x="1465.23" y="-399.95" font-family="Times New Roman,serif" font-size="14.00">stdF</text>
</g>
<!-- it&#45;&gt;stdF -->
<g id="edge10" class="edge">
<title>it&#45;&gt;stdF</title>
<path fill="none" stroke="black" d="M1558.63,-568.49C1524.32,-563.06 1477.29,-553.16 1465.98,-538.5 1442.3,-507.8 1449.48,-460.08 1457.15,-431.07"/>
<polygon fill="black" stroke="black" points="1557.8,-571.91 1568.21,-569.94 1558.85,-564.98 1557.8,-571.91"/>
<ellipse fill="none" stroke="black" cx="1458.29" cy="-427.03" rx="4" ry="4"/>
<text xml:space="preserve" text-anchor="middle" x="1585.61" y="-516.95" font-family="Courier,monospace" font-size="14.00">it &#45; stdF</text>
<text xml:space="preserve" text-anchor="middle" x="1585.61" y="-500.45" font-family="Courier,monospace" font-size="14.00">[&lt;&#45;o]:0.6666666666666666</text>
<text xml:space="preserve" text-anchor="middle" x="1585.61" y="-483.95" font-family="Courier,monospace" font-size="14.00">[o&#45;&gt;]:0.16666666666666666</text>
<text xml:space="preserve" text-anchor="middle" x="1585.61" y="-467.45" font-family="Courier,monospace" font-size="14.00">[no edge]:0.16666666666666666</text>
</g>
<!-- pop_size -->
<g id="node13" class="node">
<title>pop_size</title>
<ellipse fill="none" stroke="black" cx="1727.23" cy="-405" rx="43.67" ry="18"/>
<text xml:space="preserve" text-anchor="middle" x="1727.23" y="-399.95" font-family="Times New Roman,serif" font-size="14.00">pop_size</text>
</g>
<!-- it&#45;&gt;pop_size -->
<g id="edge12" class="edge">
<title>it&#45;&gt;pop_size</title>
<path fill="none" stroke="black" d="M1634.56,-571.04C1658.38,-567.42 1687.71,-558.8 1705.23,-538.5 1730.68,-509.04 1732.29,-461.66 1730.34,-432.26"/>
<polygon fill="black" stroke="black" points="1634.37,-567.53 1624.88,-572.25 1635.24,-574.48 1634.37,-567.53"/>
<ellipse fill="none" stroke="black" cx="1729.97" cy="-427.87" rx="4" ry="4"/>
<text xml:space="preserve" text-anchor="middle" x="1829.77" y="-508.7" font-family="Courier,monospace" font-size="14.00">it &#45; pop_size</text>
<text xml:space="preserve" text-anchor="middle" x="1829.77" y="-492.2" font-family="Courier,monospace" font-size="14.00">[&lt;&#45;o]:0.6666666666666666</text>
<text xml:space="preserve" text-anchor="middle" x="1829.77" y="-475.7" font-family="Courier,monospace" font-size="14.00">[o&#45;o]:0.3333333333333333</text>
</g>
<!-- best -->
<g id="node12" class="node">
<title>best</title>
<ellipse fill="none" stroke="black" cx="1393.23" cy="-405" rx="27" ry="18"/>
<text xml:space="preserve" text-anchor="middle" x="1393.23" y="-399.95" font-family="Times New Roman,serif" font-size="14.00">best</text>
</g>
<!-- best&#45;&gt;varPop -->
<g id="edge11" class="edge">
<title>best&#45;&gt;varPop</title>
<path fill="none" stroke="black" d="M1364.36,-386.52C1353.95,-380.99 1341.88,-375.43 1330.23,-372 1292.68,-360.95 1184.08,-380.2 1154.98,-354 1149.79,-349.32 1133.1,-260.07 1124.89,-214.62"/>
<polygon fill="black" stroke="black" points="1362.38,-389.43 1372.82,-391.23 1365.78,-383.31 1362.38,-389.43"/>
<ellipse fill="none" stroke="black" cx="1124.12" cy="-210.32" rx="4" ry="4"/>
<text xml:space="preserve" text-anchor="middle" x="1274.61" y="-332.45" font-family="Courier,monospace" font-size="14.00">best &#45; varPop</text>
<text xml:space="preserve" text-anchor="middle" x="1274.61" y="-315.95" font-family="Courier,monospace" font-size="14.00">[&lt;&#45;o]:0.3333333333333333</text>
<text xml:space="preserve" text-anchor="middle" x="1274.61" y="-299.45" font-family="Courier,monospace" font-size="14.00">[o&#45;o]:0.3333333333333333</text>
<text xml:space="preserve" text-anchor="middle" x="1274.61" y="-282.95" font-family="Courier,monospace" font-size="14.00">[o&#45;&gt;]:0.16666666666666666</text>
<text xml:space="preserve" text-anchor="middle" x="1274.61" y="-266.45" font-family="Courier,monospace" font-size="14.00">[no edge]:0.16666666666666666</text>
</g>
<!-- error -->
<g id="node14" class="node">
<title>error</title>
<ellipse fill="none" stroke="black" cx="1415.23" cy="-187.5" rx="28.83" ry="18"/>
<text xml:space="preserve" text-anchor="middle" x="1415.23" y="-182.45" font-family="Times New Roman,serif" font-size="14.00">error</text>
</g>
<!-- best&#45;&gt;error -->
<g id="edge13" class="edge">
<title>best&#45;&gt;error</title>
<path fill="none" stroke="black" d="M1395.89,-377.94C1400.13,-336.48 1408.34,-256 1412.57,-214.55"/>
<ellipse fill="none" stroke="black" cx="1395.45" cy="-382.25" rx="4" ry="4"/>
<ellipse fill="none" stroke="black" cx="1413" cy="-210.33" rx="4" ry="4"/>
<text xml:space="preserve" text-anchor="middle" x="1511.24" y="-340.7" font-family="Courier,monospace" font-size="14.00">best &#45; error</text>
<text xml:space="preserve" text-anchor="middle" x="1511.24" y="-324.2" font-family="Courier,monospace" font-size="14.00">[o&#45;&gt;]:0.16666666666666666</text>
<text xml:space="preserve" text-anchor="middle" x="1511.24" y="-307.7" font-family="Courier,monospace" font-size="14.00">[o&#45;o]:0.3333333333333333</text>
<text xml:space="preserve" text-anchor="middle" x="1511.24" y="-291.2" font-family="Courier,monospace" font-size="14.00">[&lt;&#45;o]:0.16666666666666666</text>
<text xml:space="preserve" text-anchor="middle" x="1511.24" y="-274.7" font-family="Courier,monospace" font-size="14.00">[&#45;&#45;&gt;]:0.16666666666666666</text>
<text xml:space="preserve" text-anchor="middle" x="1511.24" y="-258.2" font-family="Courier,monospace" font-size="14.00">[&lt;&#45;&gt;]:0.16666666666666666</text>
</g>
<!-- genInfeasibleElement -->
<g id="node15" class="node">
<title>genInfeasibleElement</title>
<ellipse fill="none" stroke="black" cx="1948.23" cy="-574.5" rx="91.78" ry="18"/>
<text xml:space="preserve" text-anchor="middle" x="1948.23" y="-569.45" font-family="Times New Roman,serif" font-size="14.00">genInfeasibleElement</text>
</g>
<!-- prob_infeas -->
<g id="node16" class="node">
<title>prob_infeas</title>
<ellipse fill="none" stroke="black" cx="1948.23" cy="-405" rx="54.42" ry="18"/>
<text xml:space="preserve" text-anchor="middle" x="1948.23" y="-399.95" font-family="Times New Roman,serif" font-size="14.00">prob_infeas</text>
</g>
<!-- genInfeasibleElement&#45;&gt;prob_infeas -->
<g id="edge14" class="edge">
<title>genInfeasibleElement&#45;&gt;prob_infeas</title>
<path fill="none" stroke="black" d="M1948.23,-547.61C1948.23,-516.22 1948.23,-463.62 1948.23,-432.12"/>
<ellipse fill="none" stroke="black" cx="1948.23" cy="-551.71" rx="4" ry="4"/>
<ellipse fill="none" stroke="black" cx="1948.23" cy="-427.95" rx="4" ry="4"/>
<text xml:space="preserve" text-anchor="middle" x="2088.48" y="-508.7" font-family="Courier,monospace" font-size="14.00">genInfeasibleElement &#45; prob_infeas</text>
<text xml:space="preserve" text-anchor="middle" x="2088.48" y="-492.2" font-family="Courier,monospace" font-size="14.00">[&lt;&#45;o]:0.16666666666666666</text>
<text xml:space="preserve" text-anchor="middle" x="2088.48" y="-475.7" font-family="Courier,monospace" font-size="14.00">[o&#45;o]:0.8333333333333334</text>
</g>
</g>
</svg>
