<?xml version="1.0" encoding="UTF-8" standalone="no"?>
<!DOCTYPE svg PUBLIC "-//W3C//DTD SVG 1.1//EN"
 "http://www.w3.org/Graphics/SVG/1.1/DTD/svg11.dtd">
<!-- Generated by graphviz version 14.0.0 (20250921.2048)
 -->
<!-- Title: g Pages: 1 -->
<svg width="2389pt" height="472pt"
 viewBox="0.00 0.00 2389.00 472.00" xmlns="http://www.w3.org/2000/svg" xmlns:xlink="http://www.w3.org/1999/xlink">
<g id="graph0" class="graph" transform="scale(1 1) rotate(0) translate(4 467.5)">
<title>g</title>
<polygon fill="white" stroke="none" points="-4,4 -4,-467.5 2384.76,-467.5 2384.76,4 -4,4"/>
<!-- extension -->
<g id="node1" class="node">
<title>extension</title>
<ellipse fill="none" stroke="black" cx="1151.51" cy="-156" rx="46.23" ry="18"/>
<text xml:space="preserve" text-anchor="middle" x="1151.51" y="-150.95" font-family="Times New Roman,serif" font-size="14.00">extension</text>
</g>
<!-- shape -->
<g id="node2" class="node">
<title>shape</title>
<ellipse fill="none" stroke="black" cx="884.51" cy="-18" rx="31.9" ry="18"/>
<text xml:space="preserve" text-anchor="middle" x="884.51" y="-12.95" font-family="Times New Roman,serif" font-size="14.00">shape</text>
</g>
<!-- extension&#45;&gt;shape -->
<g id="edge1" class="edge">
<title>extension&#45;&gt;shape</title>
<path fill="none" stroke="black" d="M1153.45,-128.95C1153.63,-105.84 1149.84,-72.9 1129.51,-54 1100.64,-27.16 987.31,-20.81 925.41,-19.37"/>
<ellipse fill="none" stroke="black" cx="1153.32" cy="-133.38" rx="4" ry="4"/>
<ellipse fill="none" stroke="black" cx="921.16" cy="-19.29" rx="4" ry="4"/>
<text xml:space="preserve" text-anchor="middle" x="1268.76" y="-106.7" font-family="Courier,monospace" font-size="14.00">extension &#45; shape</text>
<text xml:space="preserve" text-anchor="middle" x="1268.76" y="-90.2" font-family="Courier,monospace" font-size="14.00">[o&#45;o]:0.5</text>
<text xml:space="preserve" text-anchor="middle" x="1268.76" y="-73.7" font-family="Courier,monospace" font-size="14.00">[&lt;&#45;&#45;]:0.16666666666666666</text>
<text xml:space="preserve" text-anchor="middle" x="1268.76" y="-57.2" font-family="Courier,monospace" font-size="14.00">[no edge]:0.3333333333333333</text>
</g>
<!-- eccentricity -->
<g id="node3" class="node">
<title>eccentricity</title>
<ellipse fill="none" stroke="black" cx="380.51" cy="-156" rx="53.91" ry="18"/>
<text xml:space="preserve" text-anchor="middle" x="380.51" y="-150.95" font-family="Times New Roman,serif" font-size="14.00">eccentricity</text>
</g>
<!-- eccentricity&#45;&gt;shape -->
<g id="edge9" class="edge">
<title>eccentricity&#45;&gt;shape</title>
<path fill="none" stroke="black" d="M445,-152.07C500.36,-148.23 574.57,-139.52 596.51,-120 619.29,-99.73 592.17,-73.91 615.26,-54 648.65,-25.2 777.06,-19.8 843.75,-18.98"/>
<polygon fill="black" stroke="black" points="445.12,-148.55 435.37,-152.69 445.57,-155.54 445.12,-148.55"/>
<ellipse fill="none" stroke="black" cx="847.85" cy="-18.94" rx="4" ry="4"/>
<text xml:space="preserve" text-anchor="middle" x="718.38" y="-98.45" font-family="Courier,monospace" font-size="14.00">eccentricity &#45; shape</text>
<text xml:space="preserve" text-anchor="middle" x="718.38" y="-81.95" font-family="Courier,monospace" font-size="14.00">[&lt;&#45;o]:0.8333333333333334</text>
<text xml:space="preserve" text-anchor="middle" x="718.38" y="-65.45" font-family="Courier,monospace" font-size="14.00">[&lt;&#45;&gt;]:0.16666666666666666</text>
</g>
<!-- kl_unif -->
<g id="node4" class="node">
<title>kl_unif</title>
<ellipse fill="none" stroke="black" cx="106.51" cy="-18" rx="37.53" ry="18"/>
<text xml:space="preserve" text-anchor="middle" x="106.51" y="-12.95" font-family="Times New Roman,serif" font-size="14.00">kl_unif</text>
</g>
<!-- eccentricity&#45;&gt;kl_unif -->
<g id="edge2" class="edge">
<title>eccentricity&#45;&gt;kl_unif</title>
<path fill="none" stroke="black" d="M316.92,-150.17C267.32,-145.25 203.51,-136.01 183.01,-120 157.68,-100.23 173.6,-79.07 153.51,-54 148.75,-48.07 142.77,-42.61 136.68,-37.87"/>
<polygon fill="black" stroke="black" points="316.44,-153.64 326.72,-151.1 317.1,-146.67 316.44,-153.64"/>
<ellipse fill="none" stroke="black" cx="133.17" cy="-35.29" rx="4" ry="4"/>
<text xml:space="preserve" text-anchor="middle" x="273.76" y="-90.2" font-family="Courier,monospace" font-size="14.00">eccentricity &#45; kl_unif</text>
<text xml:space="preserve" text-anchor="middle" x="273.76" y="-73.7" font-family="Courier,monospace" font-size="14.00">[&lt;&#45;o]:1.0</text>
</g>
<!-- prob_infeas -->
<g id="node14" class="node">
<title>prob_infeas</title>
<ellipse fill="none" stroke="black" cx="580.51" cy="-18" rx="54.42" ry="18"/>
<text xml:space="preserve" text-anchor="middle" x="580.51" y="-12.95" font-family="Times New Roman,serif" font-size="14.00">prob_infeas</text>
</g>
<!-- eccentricity&#45;&gt;prob_infeas -->
<g id="edge12" class="edge">
<title>eccentricity&#45;&gt;prob_infeas</title>
<path fill="none" stroke="black" d="M372.05,-126.56C367.29,-104.22 365.24,-73.69 382.01,-54 399.28,-33.73 466.17,-25.19 517.58,-21.6"/>
<polygon fill="black" stroke="black" points="368.64,-127.35 374.42,-136.23 375.44,-125.68 368.64,-127.35"/>
<ellipse fill="none" stroke="black" cx="521.85" cy="-21.32" rx="4" ry="4"/>
<text xml:space="preserve" text-anchor="middle" x="489.26" y="-90.2" font-family="Courier,monospace" font-size="14.00">eccentricity &#45; prob_infeas</text>
<text xml:space="preserve" text-anchor="middle" x="489.26" y="-73.7" font-family="Courier,monospace" font-size="14.00">[&lt;&#45;o]:1.0</text>
</g>
<!-- meanImprovements -->
<g id="node5" class="node">
<title>meanImprovements</title>
<ellipse fill="none" stroke="black" cx="1892.51" cy="-156" rx="85.64" ry="18"/>
<text xml:space="preserve" text-anchor="middle" x="1892.51" y="-150.95" font-family="Times New Roman,serif" font-size="14.00">meanImprovements</text>
</g>
<!-- meanImprovementsMut -->
<g id="node6" class="node">
<title>meanImprovementsMut</title>
<ellipse fill="none" stroke="black" cx="1462.51" cy="-18" rx="101.51" ry="18"/>
<text xml:space="preserve" text-anchor="middle" x="1462.51" y="-12.95" font-family="Times New Roman,serif" font-size="14.00">meanImprovementsMut</text>
</g>
<!-- meanImprovements&#45;&gt;meanImprovementsMut -->
<g id="edge3" class="edge">
<title>meanImprovements&#45;&gt;meanImprovementsMut</title>
<path fill="none" stroke="black" d="M1800.6,-151.1C1721.49,-146.61 1614.08,-137.48 1575.01,-120 1536.19,-102.63 1501.45,-66.8 1481.17,-42.82"/>
<ellipse fill="none" stroke="black" cx="1804.64" cy="-151.32" rx="4" ry="4"/>
<ellipse fill="none" stroke="black" cx="1478.47" cy="-39.57" rx="4" ry="4"/>
<text xml:space="preserve" text-anchor="middle" x="1731.76" y="-98.45" font-family="Courier,monospace" font-size="14.00">meanImprovements &#45; meanImprovementsMut</text>
<text xml:space="preserve" text-anchor="middle" x="1731.76" y="-81.95" font-family="Courier,monospace" font-size="14.00">[o&#45;o]:0.8333333333333334</text>
<text xml:space="preserve" text-anchor="middle" x="1731.76" y="-65.45" font-family="Courier,monospace" font-size="14.00">[no edge]:0.16666666666666666</text>
</g>
<!-- varPop -->
<g id="node11" class="node">
<title>varPop</title>
<ellipse fill="none" stroke="black" cx="1892.51" cy="-18" rx="37.02" ry="18"/>
<text xml:space="preserve" text-anchor="middle" x="1892.51" y="-12.95" font-family="Times New Roman,serif" font-size="14.00">varPop</text>
</g>
<!-- meanImprovements&#45;&gt;varPop -->
<g id="edge10" class="edge">
<title>meanImprovements&#45;&gt;varPop</title>
<path fill="none" stroke="black" d="M1892.51,-128.78C1892.51,-104.65 1892.51,-69.06 1892.51,-45"/>
<ellipse fill="none" stroke="black" cx="1892.51" cy="-133.28" rx="4" ry="4"/>
<ellipse fill="none" stroke="black" cx="1892.51" cy="-40.58" rx="4" ry="4"/>
<text xml:space="preserve" text-anchor="middle" x="1995.63" y="-90.2" font-family="Courier,monospace" font-size="14.00">meanImprovements &#45; varPop</text>
<text xml:space="preserve" text-anchor="middle" x="1995.63" y="-73.7" font-family="Courier,monospace" font-size="14.00">[o&#45;o]:1.0</text>
</g>
<!-- error -->
<g id="node7" class="node">
<title>error</title>
<ellipse fill="none" stroke="black" cx="1669.51" cy="-309" rx="28.83" ry="18"/>
<text xml:space="preserve" text-anchor="middle" x="1669.51" y="-303.95" font-family="Times New Roman,serif" font-size="14.00">error</text>
</g>
<!-- error&#45;&gt;extension -->
<g id="edge4" class="edge">
<title>error&#45;&gt;extension</title>
<path fill="none" stroke="black" d="M1668.01,-279.73C1665.75,-249.19 1660.29,-203.36 1647.51,-192 1615.18,-163.25 1329.29,-158.06 1206.81,-157.17"/>
<polygon fill="black" stroke="black" points="1664.5,-279.71 1668.65,-289.46 1671.49,-279.25 1664.5,-279.71"/>
<ellipse fill="none" stroke="black" cx="1202.43" cy="-157.14" rx="4" ry="4"/>
<text xml:space="preserve" text-anchor="middle" x="1785.49" y="-244.7" font-family="Courier,monospace" font-size="14.00">error &#45; extension</text>
<text xml:space="preserve" text-anchor="middle" x="1785.49" y="-228.2" font-family="Courier,monospace" font-size="14.00">[&lt;&#45;o]:0.6666666666666666</text>
<text xml:space="preserve" text-anchor="middle" x="1785.49" y="-211.7" font-family="Courier,monospace" font-size="14.00">[&lt;&#45;&#45;]:0.16666666666666666</text>
<text xml:space="preserve" text-anchor="middle" x="1785.49" y="-195.2" font-family="Courier,monospace" font-size="14.00">[no edge]:0.16666666666666666</text>
</g>
<!-- error&#45;&gt;meanImprovements -->
<g id="edge17" class="edge">
<title>error&#45;&gt;meanImprovements</title>
<path fill="none" stroke="black" d="M1706.4,-298.49C1733.24,-291.75 1770.49,-282.74 1803.51,-276 1826.92,-271.22 1894.09,-276.25 1909.51,-258 1927.29,-236.95 1917.31,-204.37 1906.67,-181.94"/>
<polygon fill="black" stroke="black" points="1705.89,-295.01 1697.05,-300.86 1707.61,-301.8 1705.89,-295.01"/>
<ellipse fill="none" stroke="black" cx="1904.79" cy="-178.19" rx="4" ry="4"/>
<text xml:space="preserve" text-anchor="middle" x="2038.88" y="-236.45" font-family="Courier,monospace" font-size="14.00">error &#45; meanImprovements</text>
<text xml:space="preserve" text-anchor="middle" x="2038.88" y="-219.95" font-family="Courier,monospace" font-size="14.00">[&lt;&#45;o]:0.8333333333333334</text>
<text xml:space="preserve" text-anchor="middle" x="2038.88" y="-203.45" font-family="Courier,monospace" font-size="14.00">[no edge]:0.16666666666666666</text>
</g>
<!-- best -->
<g id="node8" class="node">
<title>best</title>
<ellipse fill="none" stroke="black" cx="1407.51" cy="-445.5" rx="27" ry="18"/>
<text xml:space="preserve" text-anchor="middle" x="1407.51" y="-440.45" font-family="Times New Roman,serif" font-size="14.00">best</text>
</g>
<!-- best&#45;&gt;extension -->
<g id="edge5" class="edge">
<title>best&#45;&gt;extension</title>
<path fill="none" stroke="black" d="M1369.34,-441.71C1311.52,-435.2 1203.28,-413.57 1154.26,-342 1121.32,-293.91 1133.7,-221.05 1143.69,-182.69"/>
<polygon fill="black" stroke="black" points="1368.73,-445.16 1379.04,-442.7 1369.44,-438.2 1368.73,-445.16"/>
<ellipse fill="none" stroke="black" cx="1144.84" cy="-178.5" rx="4" ry="4"/>
<text xml:space="preserve" text-anchor="middle" x="1273.88" y="-328.7" font-family="Courier,monospace" font-size="14.00">best &#45; extension</text>
<text xml:space="preserve" text-anchor="middle" x="1273.88" y="-312.2" font-family="Courier,monospace" font-size="14.00">[&lt;&#45;&#45;]:0.3333333333333333</text>
<text xml:space="preserve" text-anchor="middle" x="1273.88" y="-295.7" font-family="Courier,monospace" font-size="14.00">[&lt;&#45;o]:0.5</text>
<text xml:space="preserve" text-anchor="middle" x="1273.88" y="-279.2" font-family="Courier,monospace" font-size="14.00">[no edge]:0.16666666666666666</text>
</g>
<!-- best&#45;&gt;meanImprovementsMut -->
<g id="edge6" class="edge">
<title>best&#45;&gt;meanImprovementsMut</title>
<path fill="none" stroke="black" d="M1403.91,-415.8C1398.72,-368.71 1391.12,-272.22 1404.26,-192 1413.15,-137.74 1436.74,-77.57 1451.03,-44.42"/>
<polygon fill="black" stroke="black" points="1400.43,-416.16 1405.05,-425.7 1407.38,-415.36 1400.43,-416.16"/>
<ellipse fill="none" stroke="black" cx="1452.82" cy="-40.32" rx="4" ry="4"/>
<text xml:space="preserve" text-anchor="middle" x="1523.88" y="-244.7" font-family="Courier,monospace" font-size="14.00">best &#45; meanImprovementsMut</text>
<text xml:space="preserve" text-anchor="middle" x="1523.88" y="-228.2" font-family="Courier,monospace" font-size="14.00">[&lt;&#45;o]:0.6666666666666666</text>
<text xml:space="preserve" text-anchor="middle" x="1523.88" y="-211.7" font-family="Courier,monospace" font-size="14.00">[&lt;&#45;&gt;]:0.16666666666666666</text>
<text xml:space="preserve" text-anchor="middle" x="1523.88" y="-195.2" font-family="Courier,monospace" font-size="14.00">[no edge]:0.16666666666666666</text>
</g>
<!-- best&#45;&gt;error -->
<g id="edge15" class="edge">
<title>best&#45;&gt;error</title>
<path fill="none" stroke="black" d="M1438.47,-428.61C1492.13,-401.06 1601.15,-345.09 1647.68,-321.21"/>
<polygon fill="black" stroke="black" points="1437.15,-425.35 1429.85,-433.03 1440.35,-431.58 1437.15,-425.35"/>
<text xml:space="preserve" text-anchor="middle" x="1672.81" y="-396.2" font-family="Courier,monospace" font-size="14.00">best &#45; error</text>
<text xml:space="preserve" text-anchor="middle" x="1672.81" y="-379.7" font-family="Courier,monospace" font-size="14.00">[o&#45;o]:0.16666666666666666</text>
<text xml:space="preserve" text-anchor="middle" x="1672.81" y="-363.2" font-family="Courier,monospace" font-size="14.00">[&lt;&#45;&#45;]:0.8333333333333334</text>
</g>
<!-- avgF -->
<g id="node9" class="node">
<title>avgF</title>
<ellipse fill="none" stroke="black" cx="36.51" cy="-156" rx="29.34" ry="18"/>
<text xml:space="preserve" text-anchor="middle" x="36.51" y="-150.95" font-family="Times New Roman,serif" font-size="14.00">avgF</text>
</g>
<!-- avgF&#45;&gt;kl_unif -->
<g id="edge7" class="edge">
<title>avgF&#45;&gt;kl_unif</title>
<path fill="none" stroke="black" d="M29.96,-129.1C26,-107.38 24.06,-76.41 38.01,-54 44.48,-43.6 55.11,-36.16 66.09,-30.89"/>
<ellipse fill="none" stroke="black" cx="30.84" cy="-133.38" rx="4" ry="4"/>
<ellipse fill="none" stroke="black" cx="69.96" cy="-29.22" rx="4" ry="4"/>
<text xml:space="preserve" text-anchor="middle" x="95.76" y="-90.2" font-family="Courier,monospace" font-size="14.00">avgF &#45; kl_unif</text>
<text xml:space="preserve" text-anchor="middle" x="95.76" y="-73.7" font-family="Courier,monospace" font-size="14.00">[o&#45;o]:1.0</text>
</g>
<!-- avgCR -->
<g id="node10" class="node">
<title>avgCR</title>
<ellipse fill="none" stroke="black" cx="36.51" cy="-309" rx="36.51" ry="18"/>
<text xml:space="preserve" text-anchor="middle" x="36.51" y="-303.95" font-family="Times New Roman,serif" font-size="14.00">avgCR</text>
</g>
<!-- avgCR&#45;&gt;avgF -->
<g id="edge8" class="edge">
<title>avgCR&#45;&gt;avgF</title>
<path fill="none" stroke="black" d="M36.51,-279.33C36.51,-251.54 36.51,-209.76 36.51,-182.94"/>
<polygon fill="black" stroke="black" points="33.01,-279.16 36.51,-289.16 40.01,-279.16 33.01,-279.16"/>
<ellipse fill="none" stroke="black" cx="36.51" cy="-178.62" rx="4" ry="4"/>
<text xml:space="preserve" text-anchor="middle" x="135.51" y="-236.45" font-family="Courier,monospace" font-size="14.00">avgCR &#45; avgF</text>
<text xml:space="preserve" text-anchor="middle" x="135.51" y="-219.95" font-family="Courier,monospace" font-size="14.00">[&lt;&#45;o]:0.6666666666666666</text>
<text xml:space="preserve" text-anchor="middle" x="135.51" y="-203.45" font-family="Courier,monospace" font-size="14.00">[o&#45;o]:0.3333333333333333</text>
</g>
<!-- stdCR -->
<g id="node12" class="node">
<title>stdCR</title>
<ellipse fill="none" stroke="black" cx="1839.51" cy="-445.5" rx="33.95" ry="18"/>
<text xml:space="preserve" text-anchor="middle" x="1839.51" y="-440.45" font-family="Times New Roman,serif" font-size="14.00">stdCR</text>
</g>
<!-- stdF -->
<g id="node13" class="node">
<title>stdF</title>
<ellipse fill="none" stroke="black" cx="1839.51" cy="-309" rx="27" ry="18"/>
<text xml:space="preserve" text-anchor="middle" x="1839.51" y="-303.95" font-family="Times New Roman,serif" font-size="14.00">stdF</text>
</g>
<!-- stdCR&#45;&gt;stdF -->
<g id="edge11" class="edge">
<title>stdCR&#45;&gt;stdF</title>
<path fill="none" stroke="black" d="M1839.51,-418.32C1839.51,-394.57 1839.51,-359.75 1839.51,-336.04"/>
<ellipse fill="none" stroke="black" cx="1839.51" cy="-422.69" rx="4" ry="4"/>
<ellipse fill="none" stroke="black" cx="1839.51" cy="-331.74" rx="4" ry="4"/>
<text xml:space="preserve" text-anchor="middle" x="1959.13" y="-396.2" font-family="Courier,monospace" font-size="14.00">stdCR &#45; stdF</text>
<text xml:space="preserve" text-anchor="middle" x="1959.13" y="-379.7" font-family="Courier,monospace" font-size="14.00">[o&#45;o]:0.8333333333333334</text>
<text xml:space="preserve" text-anchor="middle" x="1959.13" y="-363.2" font-family="Courier,monospace" font-size="14.00">[no edge]:0.16666666666666666</text>
</g>
<!-- bchm -->
<g id="node15" class="node">
<title>bchm</title>
<ellipse fill="none" stroke="black" cx="2101.51" cy="-445.5" rx="31.9" ry="18"/>
<text xml:space="preserve" text-anchor="middle" x="2101.51" y="-440.45" font-family="Times New Roman,serif" font-size="14.00">bchm</text>
</g>
<!-- dist_to_opt -->
<g id="node16" class="node">
<title>dist_to_opt</title>
<ellipse fill="none" stroke="black" cx="2101.51" cy="-309" rx="52.38" ry="18"/>
<text xml:space="preserve" text-anchor="middle" x="2101.51" y="-303.95" font-family="Times New Roman,serif" font-size="14.00">dist_to_opt</text>
</g>
<!-- bchm&#45;&gt;dist_to_opt -->
<g id="edge13" class="edge">
<title>bchm&#45;&gt;dist_to_opt</title>
<path fill="none" stroke="black" d="M2101.51,-418.32C2101.51,-394.57 2101.51,-359.75 2101.51,-336.04"/>
<ellipse fill="none" stroke="black" cx="2101.51" cy="-422.69" rx="4" ry="4"/>
<ellipse fill="none" stroke="black" cx="2101.51" cy="-331.74" rx="4" ry="4"/>
<text xml:space="preserve" text-anchor="middle" x="2175.76" y="-387.95" font-family="Courier,monospace" font-size="14.00">bchm &#45; dist_to_opt</text>
<text xml:space="preserve" text-anchor="middle" x="2175.76" y="-371.45" font-family="Courier,monospace" font-size="14.00">[o&#45;o]:1.0</text>
</g>
<!-- it -->
<g id="node17" class="node">
<title>it</title>
<ellipse fill="none" stroke="black" cx="2273.51" cy="-445.5" rx="27" ry="18"/>
<text xml:space="preserve" text-anchor="middle" x="2273.51" y="-440.45" font-family="Times New Roman,serif" font-size="14.00">it</text>
</g>
<!-- pop_size -->
<g id="node18" class="node">
<title>pop_size</title>
<ellipse fill="none" stroke="black" cx="2273.51" cy="-309" rx="43.67" ry="18"/>
<text xml:space="preserve" text-anchor="middle" x="2273.51" y="-303.95" font-family="Times New Roman,serif" font-size="14.00">pop_size</text>
</g>
<!-- it&#45;&gt;pop_size -->
<g id="edge14" class="edge">
<title>it&#45;&gt;pop_size</title>
<path fill="none" stroke="black" d="M2273.51,-418.32C2273.51,-394.57 2273.51,-359.75 2273.51,-336.04"/>
<ellipse fill="none" stroke="black" cx="2273.51" cy="-422.69" rx="4" ry="4"/>
<ellipse fill="none" stroke="black" cx="2273.51" cy="-331.74" rx="4" ry="4"/>
<text xml:space="preserve" text-anchor="middle" x="2327.13" y="-387.95" font-family="Courier,monospace" font-size="14.00">it &#45; pop_size</text>
<text xml:space="preserve" text-anchor="middle" x="2327.13" y="-371.45" font-family="Courier,monospace" font-size="14.00">[o&#45;o]:1.0</text>
</g>
<!-- genInfeasibleElement -->
<g id="node19" class="node">
<title>genInfeasibleElement</title>
<ellipse fill="none" stroke="black" cx="847.51" cy="-156" rx="91.78" ry="18"/>
<text xml:space="preserve" text-anchor="middle" x="847.51" y="-150.95" font-family="Times New Roman,serif" font-size="14.00">genInfeasibleElement</text>
</g>
<!-- genInfeasibleElement&#45;&gt;prob_infeas -->
<g id="edge16" class="edge">
<title>genInfeasibleElement&#45;&gt;prob_infeas</title>
<path fill="none" stroke="black" d="M845.19,-128.98C842.26,-102.51 836.27,-64 825.51,-54 799.85,-30.14 707.46,-22.48 643.77,-20.06"/>
<ellipse fill="none" stroke="black" cx="845.63" cy="-133.3" rx="4" ry="4"/>
<ellipse fill="none" stroke="black" cx="639.48" cy="-19.91" rx="4" ry="4"/>
<text xml:space="preserve" text-anchor="middle" x="984.2" y="-90.2" font-family="Courier,monospace" font-size="14.00">genInfeasibleElement &#45; prob_infeas</text>
<text xml:space="preserve" text-anchor="middle" x="984.2" y="-73.7" font-family="Courier,monospace" font-size="14.00">[o&#45;o]:1.0</text>
</g>
</g>
</svg>
