<?xml version="1.0" encoding="UTF-8" standalone="no"?>
<!DOCTYPE svg PUBLIC "-//W3C//DTD SVG 1.1//EN"
 "http://www.w3.org/Graphics/SVG/1.1/DTD/svg11.dtd">
<!-- Generated by graphviz version 14.0.0 (20250921.2048)
 -->
<!-- Title: g Pages: 1 -->
<svg width="2805pt" height="626pt"
 viewBox="0.00 0.00 2805.00 626.00" xmlns="http://www.w3.org/2000/svg" xmlns:xlink="http://www.w3.org/1999/xlink">
<g id="graph0" class="graph" transform="scale(1 1) rotate(0) translate(4 622)">
<title>g</title>
<polygon fill="white" stroke="none" points="-4,4 -4,-622 2800.78,-622 2800.78,4 -4,4"/>
<!-- extension -->
<g id="node1" class="node">
<title>extension</title>
<ellipse fill="none" stroke="black" cx="235.78" cy="-261" rx="46.23" ry="18"/>
<text xml:space="preserve" text-anchor="middle" x="235.78" y="-255.95" font-family="Times New Roman,serif" font-size="14.00">extension</text>
</g>
<!-- shape -->
<g id="node2" class="node">
<title>shape</title>
<ellipse fill="none" stroke="black" cx="492.78" cy="-139.5" rx="31.9" ry="18"/>
<text xml:space="preserve" text-anchor="middle" x="492.78" y="-134.45" font-family="Times New Roman,serif" font-size="14.00">shape</text>
</g>
<!-- extension&#45;&gt;shape -->
<g id="edge1" class="edge">
<title>extension&#45;&gt;shape</title>
<path fill="none" stroke="black" d="M289.83,-255.13C312.89,-250.55 338.61,-241.76 356.78,-225 374.08,-209.05 358.31,-191.53 375.53,-175.5 395.61,-156.82 425.24,-148.08 449.69,-144.01"/>
<ellipse fill="none" stroke="black" cx="285.58" cy="-255.89" rx="4" ry="4"/>
<polygon fill="black" stroke="black" points="449.97,-147.5 459.36,-142.62 448.97,-140.57 449.97,-147.5"/>
<text xml:space="preserve" text-anchor="middle" x="478.66" y="-211.7" font-family="Courier,monospace" font-size="14.00">extension &#45; shape</text>
<text xml:space="preserve" text-anchor="middle" x="478.66" y="-195.2" font-family="Courier,monospace" font-size="14.00">[&#45;&#45;&gt;]:0.16666666666666666</text>
<text xml:space="preserve" text-anchor="middle" x="478.66" y="-178.7" font-family="Courier,monospace" font-size="14.00">[o&#45;&gt;]:0.8333333333333334</text>
</g>
<!-- genInfeasibleElement -->
<g id="node14" class="node">
<title>genInfeasibleElement</title>
<ellipse fill="none" stroke="black" cx="91.78" cy="-139.5" rx="91.78" ry="18"/>
<text xml:space="preserve" text-anchor="middle" x="91.78" y="-134.45" font-family="Times New Roman,serif" font-size="14.00">genInfeasibleElement</text>
</g>
<!-- extension&#45;&gt;genInfeasibleElement -->
<g id="edge11" class="edge">
<title>extension&#45;&gt;genInfeasibleElement</title>
<path fill="none" stroke="black" d="M183.11,-253.88C147.18,-248.5 104.12,-239.27 92.78,-225 79.9,-208.78 80.92,-184.76 84.43,-166.47"/>
<ellipse fill="none" stroke="black" cx="187.15" cy="-254.46" rx="4" ry="4"/>
<ellipse fill="none" stroke="black" cx="85.39" cy="-162.15" rx="4" ry="4"/>
<text xml:space="preserve" text-anchor="middle" x="224.78" y="-211.7" font-family="Courier,monospace" font-size="14.00">extension &#45; genInfeasibleElement</text>
<text xml:space="preserve" text-anchor="middle" x="224.78" y="-195.2" font-family="Courier,monospace" font-size="14.00">[o&#45;o]:0.8333333333333334</text>
<text xml:space="preserve" text-anchor="middle" x="224.78" y="-178.7" font-family="Courier,monospace" font-size="14.00">[&lt;&#45;&#45;]:0.16666666666666666</text>
</g>
<!-- eccentricity -->
<g id="node3" class="node">
<title>eccentricity</title>
<ellipse fill="none" stroke="black" cx="497.78" cy="-438.75" rx="53.91" ry="18"/>
<text xml:space="preserve" text-anchor="middle" x="497.78" y="-433.7" font-family="Times New Roman,serif" font-size="14.00">eccentricity</text>
</g>
<!-- kl_unif -->
<g id="node4" class="node">
<title>kl_unif</title>
<ellipse fill="none" stroke="black" cx="607.78" cy="-261" rx="37.53" ry="18"/>
<text xml:space="preserve" text-anchor="middle" x="607.78" y="-255.95" font-family="Times New Roman,serif" font-size="14.00">kl_unif</text>
</g>
<!-- eccentricity&#45;&gt;kl_unif -->
<g id="edge2" class="edge">
<title>eccentricity&#45;&gt;kl_unif</title>
<path fill="none" stroke="black" d="M489.75,-412.21C481.84,-381.68 474.16,-330.52 498.78,-297 513.17,-277.42 538.68,-268.55 561.41,-264.64"/>
<ellipse fill="none" stroke="black" cx="490.87" cy="-416.27" rx="4" ry="4"/>
<ellipse fill="none" stroke="black" cx="565.82" cy="-263.99" rx="4" ry="4"/>
<text xml:space="preserve" text-anchor="middle" x="597.78" y="-349.7" font-family="Courier,monospace" font-size="14.00">eccentricity &#45; kl_unif</text>
<text xml:space="preserve" text-anchor="middle" x="597.78" y="-333.2" font-family="Courier,monospace" font-size="14.00">[&lt;&#45;o]:0.3333333333333333</text>
<text xml:space="preserve" text-anchor="middle" x="597.78" y="-316.7" font-family="Courier,monospace" font-size="14.00">[o&#45;o]:0.6666666666666666</text>
</g>
<!-- kl_unif&#45;&gt;shape -->
<g id="edge4" class="edge">
<title>kl_unif&#45;&gt;shape</title>
<path fill="none" stroke="black" d="M607.12,-233.84C605.32,-215.46 600.1,-191.41 585.78,-175.5 572.66,-160.91 552.84,-152.38 534.86,-147.4"/>
<ellipse fill="none" stroke="black" cx="607.43" cy="-238.12" rx="4" ry="4"/>
<polygon fill="black" stroke="black" points="535.71,-144 525.17,-145.03 534.05,-150.8 535.71,-144"/>
<text xml:space="preserve" text-anchor="middle" x="721.41" y="-211.7" font-family="Courier,monospace" font-size="14.00">kl_unif &#45; shape</text>
<text xml:space="preserve" text-anchor="middle" x="721.41" y="-195.2" font-family="Courier,monospace" font-size="14.00">[o&#45;&gt;]:0.6666666666666666</text>
<text xml:space="preserve" text-anchor="middle" x="721.41" y="-178.7" font-family="Courier,monospace" font-size="14.00">[no edge]:0.3333333333333333</text>
</g>
<!-- meanImprovements -->
<g id="node5" class="node">
<title>meanImprovements</title>
<ellipse fill="none" stroke="black" cx="1350.78" cy="-438.75" rx="85.64" ry="18"/>
<text xml:space="preserve" text-anchor="middle" x="1350.78" y="-433.7" font-family="Times New Roman,serif" font-size="14.00">meanImprovements</text>
</g>
<!-- meanImprovementsMut -->
<g id="node6" class="node">
<title>meanImprovementsMut</title>
<ellipse fill="none" stroke="black" cx="1181.78" cy="-261" rx="101.51" ry="18"/>
<text xml:space="preserve" text-anchor="middle" x="1181.78" y="-255.95" font-family="Times New Roman,serif" font-size="14.00">meanImprovementsMut</text>
</g>
<!-- meanImprovements&#45;&gt;meanImprovementsMut -->
<g id="edge3" class="edge">
<title>meanImprovements&#45;&gt;meanImprovementsMut</title>
<path fill="none" stroke="black" d="M1309.19,-418.19C1293.05,-411.07 1274.28,-403.34 1256.78,-397.5 1224.88,-386.84 1204.21,-405.83 1183.28,-379.5 1162.84,-353.79 1167.52,-313.94 1173.81,-287.9"/>
<ellipse fill="none" stroke="black" cx="1313.26" cy="-420.01" rx="4" ry="4"/>
<ellipse fill="none" stroke="black" cx="1174.92" cy="-283.67" rx="4" ry="4"/>
<text xml:space="preserve" text-anchor="middle" x="1340.03" y="-357.95" font-family="Courier,monospace" font-size="14.00">meanImprovements &#45; meanImprovementsMut</text>
<text xml:space="preserve" text-anchor="middle" x="1340.03" y="-341.45" font-family="Courier,monospace" font-size="14.00">[o&#45;&gt;]:0.16666666666666666</text>
<text xml:space="preserve" text-anchor="middle" x="1340.03" y="-324.95" font-family="Courier,monospace" font-size="14.00">[o&#45;o]:0.6666666666666666</text>
<text xml:space="preserve" text-anchor="middle" x="1340.03" y="-308.45" font-family="Courier,monospace" font-size="14.00">[no edge]:0.16666666666666666</text>
</g>
<!-- varPop -->
<g id="node11" class="node">
<title>varPop</title>
<ellipse fill="none" stroke="black" cx="1739.78" cy="-261" rx="37.02" ry="18"/>
<text xml:space="preserve" text-anchor="middle" x="1739.78" y="-255.95" font-family="Times New Roman,serif" font-size="14.00">varPop</text>
</g>
<!-- meanImprovements&#45;&gt;varPop -->
<g id="edge9" class="edge">
<title>meanImprovements&#45;&gt;varPop</title>
<path fill="none" stroke="black" d="M1422.19,-423.51C1448.89,-414.87 1477.4,-401.15 1496.78,-379.5 1522.15,-351.16 1491.18,-322.35 1519.53,-297 1544.6,-274.58 1637.06,-266.47 1693.91,-263.58"/>
<ellipse fill="none" stroke="black" cx="1417.9" cy="-424.82" rx="4" ry="4"/>
<ellipse fill="none" stroke="black" cx="1698.22" cy="-263.37" rx="4" ry="4"/>
<text xml:space="preserve" text-anchor="middle" x="1622.66" y="-349.7" font-family="Courier,monospace" font-size="14.00">meanImprovements &#45; varPop</text>
<text xml:space="preserve" text-anchor="middle" x="1622.66" y="-333.2" font-family="Courier,monospace" font-size="14.00">[&lt;&#45;&#45;]:0.16666666666666666</text>
<text xml:space="preserve" text-anchor="middle" x="1622.66" y="-316.7" font-family="Courier,monospace" font-size="14.00">[o&#45;o]:0.8333333333333334</text>
</g>
<!-- avgF -->
<g id="node7" class="node">
<title>avgF</title>
<ellipse fill="none" stroke="black" cx="718.78" cy="-438.75" rx="29.34" ry="18"/>
<text xml:space="preserve" text-anchor="middle" x="718.78" y="-433.7" font-family="Times New Roman,serif" font-size="14.00">avgF</text>
</g>
<!-- avgF&#45;&gt;kl_unif -->
<g id="edge5" class="edge">
<title>avgF&#45;&gt;kl_unif</title>
<path fill="none" stroke="black" d="M721.93,-411.59C724.14,-380.79 723,-329.71 696.78,-297 685.64,-283.1 668.21,-274.7 651.71,-269.64"/>
<ellipse fill="none" stroke="black" cx="721.55" cy="-415.97" rx="4" ry="4"/>
<ellipse fill="none" stroke="black" cx="647.54" cy="-268.48" rx="4" ry="4"/>
<text xml:space="preserve" text-anchor="middle" x="825.53" y="-349.7" font-family="Courier,monospace" font-size="14.00">avgF &#45; kl_unif</text>
<text xml:space="preserve" text-anchor="middle" x="825.53" y="-333.2" font-family="Courier,monospace" font-size="14.00">[o&#45;o]:0.8333333333333334</text>
<text xml:space="preserve" text-anchor="middle" x="825.53" y="-316.7" font-family="Courier,monospace" font-size="14.00">[&lt;&#45;o]:0.16666666666666666</text>
</g>
<!-- avgCR -->
<g id="node8" class="node">
<title>avgCR</title>
<ellipse fill="none" stroke="black" cx="947.78" cy="-600" rx="36.51" ry="18"/>
<text xml:space="preserve" text-anchor="middle" x="947.78" y="-594.95" font-family="Times New Roman,serif" font-size="14.00">avgCR</text>
</g>
<!-- avgCR&#45;&gt;avgF -->
<g id="edge7" class="edge">
<title>avgCR&#45;&gt;avgF</title>
<path fill="none" stroke="black" d="M899.93,-597.39C844.99,-594.48 759.59,-586.4 737.53,-564 712.23,-538.31 711.79,-493.98 714.65,-465.81"/>
<polygon fill="black" stroke="black" points="899.49,-600.87 909.65,-597.86 899.83,-593.88 899.49,-600.87"/>
<ellipse fill="none" stroke="black" cx="715.18" cy="-461.39" rx="4" ry="4"/>
<text xml:space="preserve" text-anchor="middle" x="840.66" y="-542.45" font-family="Courier,monospace" font-size="14.00">avgCR &#45; avgF</text>
<text xml:space="preserve" text-anchor="middle" x="840.66" y="-525.95" font-family="Courier,monospace" font-size="14.00">[&lt;&#45;&#45;]:0.16666666666666666</text>
<text xml:space="preserve" text-anchor="middle" x="840.66" y="-509.45" font-family="Courier,monospace" font-size="14.00">[&lt;&#45;o]:0.8333333333333334</text>
</g>
<!-- genMutatedComponent -->
<g id="node9" class="node">
<title>genMutatedComponent</title>
<ellipse fill="none" stroke="black" cx="947.78" cy="-438.75" rx="98.95" ry="18"/>
<text xml:space="preserve" text-anchor="middle" x="947.78" y="-433.7" font-family="Times New Roman,serif" font-size="14.00">genMutatedComponent</text>
</g>
<!-- avgCR&#45;&gt;genMutatedComponent -->
<g id="edge6" class="edge">
<title>avgCR&#45;&gt;genMutatedComponent</title>
<path fill="none" stroke="black" d="M947.78,-570.51C947.78,-540.78 947.78,-494.54 947.78,-465.76"/>
<polygon fill="black" stroke="black" points="944.28,-570.14 947.78,-580.14 951.28,-570.14 944.28,-570.14"/>
<ellipse fill="none" stroke="black" cx="947.78" cy="-461.57" rx="4" ry="4"/>
<text xml:space="preserve" text-anchor="middle" x="1067.41" y="-542.45" font-family="Courier,monospace" font-size="14.00">avgCR &#45; genMutatedComponent</text>
<text xml:space="preserve" text-anchor="middle" x="1067.41" y="-525.95" font-family="Courier,monospace" font-size="14.00">[&lt;&#45;o]:0.8333333333333334</text>
<text xml:space="preserve" text-anchor="middle" x="1067.41" y="-509.45" font-family="Courier,monospace" font-size="14.00">[no edge]:0.16666666666666666</text>
</g>
<!-- density -->
<g id="node10" class="node">
<title>density</title>
<ellipse fill="none" stroke="black" cx="1209.78" cy="-438.75" rx="37.53" ry="18"/>
<text xml:space="preserve" text-anchor="middle" x="1209.78" y="-433.7" font-family="Times New Roman,serif" font-size="14.00">density</text>
</g>
<!-- avgCR&#45;&gt;density -->
<g id="edge8" class="edge">
<title>avgCR&#45;&gt;density</title>
<path fill="none" stroke="black" d="M996,-598.43C1058.1,-596.64 1161.24,-589.75 1187.78,-564 1213.78,-538.79 1215.37,-494.32 1213.24,-465.99"/>
<polygon fill="black" stroke="black" points="995.96,-594.93 986.05,-598.68 996.13,-601.93 995.96,-594.93"/>
<ellipse fill="none" stroke="black" cx="1212.83" cy="-461.53" rx="4" ry="4"/>
<text xml:space="preserve" text-anchor="middle" x="1328.73" y="-542.45" font-family="Courier,monospace" font-size="14.00">avgCR &#45; density</text>
<text xml:space="preserve" text-anchor="middle" x="1328.73" y="-525.95" font-family="Courier,monospace" font-size="14.00">[&lt;&#45;o]:0.6666666666666666</text>
<text xml:space="preserve" text-anchor="middle" x="1328.73" y="-509.45" font-family="Courier,monospace" font-size="14.00">[no edge]:0.3333333333333333</text>
</g>
<!-- stdCR -->
<g id="node12" class="node">
<title>stdCR</title>
<ellipse fill="none" stroke="black" cx="2197.78" cy="-600" rx="33.95" ry="18"/>
<text xml:space="preserve" text-anchor="middle" x="2197.78" y="-594.95" font-family="Times New Roman,serif" font-size="14.00">stdCR</text>
</g>
<!-- stdF -->
<g id="node13" class="node">
<title>stdF</title>
<ellipse fill="none" stroke="black" cx="2197.78" cy="-438.75" rx="27" ry="18"/>
<text xml:space="preserve" text-anchor="middle" x="2197.78" y="-433.7" font-family="Times New Roman,serif" font-size="14.00">stdF</text>
</g>
<!-- stdCR&#45;&gt;stdF -->
<g id="edge10" class="edge">
<title>stdCR&#45;&gt;stdF</title>
<path fill="none" stroke="black" d="M2197.78,-573.07C2197.78,-543.57 2197.78,-495.65 2197.78,-466.01"/>
<ellipse fill="none" stroke="black" cx="2197.78" cy="-577.15" rx="4" ry="4"/>
<ellipse fill="none" stroke="black" cx="2197.78" cy="-461.57" rx="4" ry="4"/>
<text xml:space="preserve" text-anchor="middle" x="2300.91" y="-542.45" font-family="Courier,monospace" font-size="14.00">stdCR &#45; stdF</text>
<text xml:space="preserve" text-anchor="middle" x="2300.91" y="-525.95" font-family="Courier,monospace" font-size="14.00">[o&#45;o]:0.8333333333333334</text>
<text xml:space="preserve" text-anchor="middle" x="2300.91" y="-509.45" font-family="Courier,monospace" font-size="14.00">[o&#45;&gt;]:0.16666666666666666</text>
</g>
<!-- prob_infeas -->
<g id="node21" class="node">
<title>prob_infeas</title>
<ellipse fill="none" stroke="black" cx="91.78" cy="-18" rx="54.42" ry="18"/>
<text xml:space="preserve" text-anchor="middle" x="91.78" y="-12.95" font-family="Times New Roman,serif" font-size="14.00">prob_infeas</text>
</g>
<!-- genInfeasibleElement&#45;&gt;prob_infeas -->
<g id="edge17" class="edge">
<title>genInfeasibleElement&#45;&gt;prob_infeas</title>
<path fill="none" stroke="black" d="M91.78,-112.22C91.78,-92.32 91.78,-65.12 91.78,-45.24"/>
<ellipse fill="none" stroke="black" cx="91.78" cy="-116.62" rx="4" ry="4"/>
<ellipse fill="none" stroke="black" cx="91.78" cy="-40.9" rx="4" ry="4"/>
<text xml:space="preserve" text-anchor="middle" x="232.03" y="-90.2" font-family="Courier,monospace" font-size="14.00">genInfeasibleElement &#45; prob_infeas</text>
<text xml:space="preserve" text-anchor="middle" x="232.03" y="-73.7" font-family="Courier,monospace" font-size="14.00">[&lt;&#45;o]:0.16666666666666666</text>
<text xml:space="preserve" text-anchor="middle" x="232.03" y="-57.2" font-family="Courier,monospace" font-size="14.00">[o&#45;o]:0.8333333333333334</text>
</g>
<!-- bchm -->
<g id="node15" class="node">
<title>bchm</title>
<ellipse fill="none" stroke="black" cx="2426.78" cy="-600" rx="31.9" ry="18"/>
<text xml:space="preserve" text-anchor="middle" x="2426.78" y="-594.95" font-family="Times New Roman,serif" font-size="14.00">bchm</text>
</g>
<!-- dist_to_opt -->
<g id="node16" class="node">
<title>dist_to_opt</title>
<ellipse fill="none" stroke="black" cx="2426.78" cy="-438.75" rx="52.38" ry="18"/>
<text xml:space="preserve" text-anchor="middle" x="2426.78" y="-433.7" font-family="Times New Roman,serif" font-size="14.00">dist_to_opt</text>
</g>
<!-- bchm&#45;&gt;dist_to_opt -->
<g id="edge12" class="edge">
<title>bchm&#45;&gt;dist_to_opt</title>
<path fill="none" stroke="black" d="M2426.78,-573.07C2426.78,-543.57 2426.78,-495.65 2426.78,-466.01"/>
<ellipse fill="none" stroke="black" cx="2426.78" cy="-577.15" rx="4" ry="4"/>
<ellipse fill="none" stroke="black" cx="2426.78" cy="-461.57" rx="4" ry="4"/>
<text xml:space="preserve" text-anchor="middle" x="2501.03" y="-542.45" font-family="Courier,monospace" font-size="14.00">bchm &#45; dist_to_opt</text>
<text xml:space="preserve" text-anchor="middle" x="2501.03" y="-525.95" font-family="Courier,monospace" font-size="14.00">[o&#45;o]:0.5</text>
<text xml:space="preserve" text-anchor="middle" x="2501.03" y="-509.45" font-family="Courier,monospace" font-size="14.00">[no edge]:0.5</text>
</g>
<!-- best -->
<g id="node17" class="node">
<title>best</title>
<ellipse fill="none" stroke="black" cx="1825.78" cy="-600" rx="27" ry="18"/>
<text xml:space="preserve" text-anchor="middle" x="1825.78" y="-594.95" font-family="Times New Roman,serif" font-size="14.00">best</text>
</g>
<!-- best&#45;&gt;varPop -->
<g id="edge13" class="edge">
<title>best&#45;&gt;varPop</title>
<path fill="none" stroke="black" d="M1806.67,-577.44C1788.02,-554.91 1760.76,-517.67 1748.78,-480 1727.61,-413.38 1732.29,-329.52 1736.55,-287.9"/>
<ellipse fill="none" stroke="black" cx="1809.49" cy="-580.78" rx="4" ry="4"/>
<ellipse fill="none" stroke="black" cx="1737.01" cy="-283.68" rx="4" ry="4"/>
<text xml:space="preserve" text-anchor="middle" x="1864.28" y="-466.7" font-family="Courier,monospace" font-size="14.00">best &#45; varPop</text>
<text xml:space="preserve" text-anchor="middle" x="1864.28" y="-450.2" font-family="Courier,monospace" font-size="14.00">[&#45;&#45;&gt;]:0.16666666666666666</text>
<text xml:space="preserve" text-anchor="middle" x="1864.28" y="-433.7" font-family="Courier,monospace" font-size="14.00">[&lt;&#45;o]:0.16666666666666666</text>
<text xml:space="preserve" text-anchor="middle" x="1864.28" y="-417.2" font-family="Courier,monospace" font-size="14.00">[o&#45;o]:0.3333333333333333</text>
<text xml:space="preserve" text-anchor="middle" x="1864.28" y="-400.7" font-family="Courier,monospace" font-size="14.00">[no edge]:0.3333333333333333</text>
</g>
<!-- error -->
<g id="node20" class="node">
<title>error</title>
<ellipse fill="none" stroke="black" cx="2017.78" cy="-438.75" rx="28.83" ry="18"/>
<text xml:space="preserve" text-anchor="middle" x="2017.78" y="-433.7" font-family="Times New Roman,serif" font-size="14.00">error</text>
</g>
<!-- best&#45;&gt;error -->
<g id="edge15" class="edge">
<title>best&#45;&gt;error</title>
<path fill="none" stroke="black" d="M1850.23,-580.42C1880.15,-557.47 1932.08,-516.94 1974.78,-480 1981.98,-473.78 1989.62,-466.77 1996.43,-460.36"/>
<ellipse fill="none" stroke="black" cx="1846.69" cy="-583.13" rx="4" ry="4"/>
<ellipse fill="none" stroke="black" cx="1999.66" cy="-457.3" rx="4" ry="4"/>
<text xml:space="preserve" text-anchor="middle" x="2066.49" y="-550.7" font-family="Courier,monospace" font-size="14.00">best &#45; error</text>
<text xml:space="preserve" text-anchor="middle" x="2066.49" y="-534.2" font-family="Courier,monospace" font-size="14.00">[o&#45;o]:0.3333333333333333</text>
<text xml:space="preserve" text-anchor="middle" x="2066.49" y="-517.7" font-family="Courier,monospace" font-size="14.00">[o&#45;&gt;]:0.3333333333333333</text>
<text xml:space="preserve" text-anchor="middle" x="2066.49" y="-501.2" font-family="Courier,monospace" font-size="14.00">[no edge]:0.3333333333333333</text>
</g>
<!-- it -->
<g id="node18" class="node">
<title>it</title>
<ellipse fill="none" stroke="black" cx="2598.78" cy="-600" rx="27" ry="18"/>
<text xml:space="preserve" text-anchor="middle" x="2598.78" y="-594.95" font-family="Times New Roman,serif" font-size="14.00">it</text>
</g>
<!-- pop_size -->
<g id="node19" class="node">
<title>pop_size</title>
<ellipse fill="none" stroke="black" cx="2598.78" cy="-438.75" rx="43.67" ry="18"/>
<text xml:space="preserve" text-anchor="middle" x="2598.78" y="-433.7" font-family="Times New Roman,serif" font-size="14.00">pop_size</text>
</g>
<!-- it&#45;&gt;pop_size -->
<g id="edge14" class="edge">
<title>it&#45;&gt;pop_size</title>
<path fill="none" stroke="black" d="M2598.78,-573.07C2598.78,-543.57 2598.78,-495.65 2598.78,-466.01"/>
<ellipse fill="none" stroke="black" cx="2598.78" cy="-577.15" rx="4" ry="4"/>
<ellipse fill="none" stroke="black" cx="2598.78" cy="-461.57" rx="4" ry="4"/>
<text xml:space="preserve" text-anchor="middle" x="2697.78" y="-542.45" font-family="Courier,monospace" font-size="14.00">it &#45; pop_size</text>
<text xml:space="preserve" text-anchor="middle" x="2697.78" y="-525.95" font-family="Courier,monospace" font-size="14.00">[&lt;&#45;o]:0.3333333333333333</text>
<text xml:space="preserve" text-anchor="middle" x="2697.78" y="-509.45" font-family="Courier,monospace" font-size="14.00">[o&#45;o]:0.6666666666666666</text>
</g>
<!-- error&#45;&gt;varPop -->
<g id="edge16" class="edge">
<title>error&#45;&gt;varPop</title>
<path fill="none" stroke="black" d="M1996.98,-416.46C1990.19,-410.02 1982.42,-403.16 1974.78,-397.5 1907.5,-347.64 1820.3,-301.67 1773.32,-278.24"/>
<ellipse fill="none" stroke="black" cx="2000.17" cy="-419.57" rx="4" ry="4"/>
<ellipse fill="none" stroke="black" cx="1769.34" cy="-276.27" rx="4" ry="4"/>
<text xml:space="preserve" text-anchor="middle" x="2060.17" y="-366.2" font-family="Courier,monospace" font-size="14.00">error &#45; varPop</text>
<text xml:space="preserve" text-anchor="middle" x="2060.17" y="-349.7" font-family="Courier,monospace" font-size="14.00">[o&#45;o]:0.3333333333333333</text>
<text xml:space="preserve" text-anchor="middle" x="2060.17" y="-333.2" font-family="Courier,monospace" font-size="14.00">[&lt;&#45;o]:0.16666666666666666</text>
<text xml:space="preserve" text-anchor="middle" x="2060.17" y="-316.7" font-family="Courier,monospace" font-size="14.00">[&#45;&#45;&gt;]:0.16666666666666666</text>
<text xml:space="preserve" text-anchor="middle" x="2060.17" y="-300.2" font-family="Courier,monospace" font-size="14.00">[no edge]:0.3333333333333333</text>
</g>
</g>
</svg>
