<?xml version="1.0" encoding="UTF-8" standalone="no"?>
<!DOCTYPE svg PUBLIC "-//W3C//DTD SVG 1.1//EN"
 "http://www.w3.org/Graphics/SVG/1.1/DTD/svg11.dtd">
<!-- Generated by graphviz version 14.0.0 (20250921.2048)
 -->
<!-- Title: g Pages: 1 -->
<svg width="3181pt" height="475pt"
 viewBox="0.00 0.00 3181.00 475.00" xmlns="http://www.w3.org/2000/svg" xmlns:xlink="http://www.w3.org/1999/xlink">
<g id="graph0" class="graph" transform="scale(1 1) rotate(0) translate(4 470.5)">
<title>g</title>
<polygon fill="white" stroke="none" points="-4,4 -4,-470.5 3176.78,-470.5 3176.78,4 -4,4"/>
<!-- meanImprovements -->
<g id="node1" class="node">
<title>meanImprovements</title>
<ellipse fill="none" stroke="black" cx="1573.78" cy="-310.5" rx="85.64" ry="18"/>
<text xml:space="preserve" text-anchor="middle" x="1573.78" y="-305.45" font-family="Times New Roman,serif" font-size="14.00">meanImprovements</text>
</g>
<!-- stdF -->
<g id="node2" class="node">
<title>stdF</title>
<ellipse fill="none" stroke="black" cx="1180.78" cy="-156" rx="27" ry="18"/>
<text xml:space="preserve" text-anchor="middle" x="1180.78" y="-150.95" font-family="Times New Roman,serif" font-size="14.00">stdF</text>
</g>
<!-- meanImprovements&#45;&gt;stdF -->
<g id="edge1" class="edge">
<title>meanImprovements&#45;&gt;stdF</title>
<path fill="none" stroke="black" d="M1479.25,-304.88C1421.37,-300.37 1354.05,-291.55 1330.53,-274.5 1297.43,-250.49 1320.76,-218.7 1289.78,-192 1269.18,-174.24 1239.46,-165.47 1216.26,-161.15"/>
<polygon fill="black" stroke="black" points="1478.94,-308.37 1489.17,-305.62 1479.46,-301.39 1478.94,-308.37"/>
<ellipse fill="none" stroke="black" cx="1211.84" cy="-160.4" rx="4" ry="4"/>
<text xml:space="preserve" text-anchor="middle" x="1450.16" y="-261.2" font-family="Courier,monospace" font-size="14.00">meanImprovements &#45; stdF</text>
<text xml:space="preserve" text-anchor="middle" x="1450.16" y="-244.7" font-family="Courier,monospace" font-size="14.00">[&lt;&#45;&gt;]:0.16666666666666666</text>
<text xml:space="preserve" text-anchor="middle" x="1450.16" y="-228.2" font-family="Courier,monospace" font-size="14.00">[&lt;&#45;o]:0.3333333333333333</text>
<text xml:space="preserve" text-anchor="middle" x="1450.16" y="-211.7" font-family="Courier,monospace" font-size="14.00">[o&#45;o]:0.3333333333333333</text>
<text xml:space="preserve" text-anchor="middle" x="1450.16" y="-195.2" font-family="Courier,monospace" font-size="14.00">[no edge]:0.16666666666666666</text>
</g>
<!-- meanImprovementsMut -->
<g id="node5" class="node">
<title>meanImprovementsMut</title>
<ellipse fill="none" stroke="black" cx="1802.78" cy="-156" rx="101.51" ry="18"/>
<text xml:space="preserve" text-anchor="middle" x="1802.78" y="-150.95" font-family="Times New Roman,serif" font-size="14.00">meanImprovementsMut</text>
</g>
<!-- meanImprovements&#45;&gt;meanImprovementsMut -->
<g id="edge3" class="edge">
<title>meanImprovements&#45;&gt;meanImprovementsMut</title>
<path fill="none" stroke="black" d="M1655.94,-305.09C1705.79,-300.66 1763.11,-291.87 1780.78,-274.5 1804.15,-251.54 1807.07,-212.23 1805.87,-185.46"/>
<polygon fill="black" stroke="black" points="1809.37,-185.39 1805.19,-175.65 1802.39,-185.87 1809.37,-185.39"/>
<text xml:space="preserve" text-anchor="middle" x="1962.84" y="-261.2" font-family="Courier,monospace" font-size="14.00">meanImprovements &#45; meanImprovementsMut</text>
<text xml:space="preserve" text-anchor="middle" x="1962.84" y="-244.7" font-family="Courier,monospace" font-size="14.00">[o&#45;&gt;]:0.16666666666666666</text>
<text xml:space="preserve" text-anchor="middle" x="1962.84" y="-228.2" font-family="Courier,monospace" font-size="14.00">[&#45;&#45;&gt;]:0.3333333333333333</text>
<text xml:space="preserve" text-anchor="middle" x="1962.84" y="-211.7" font-family="Courier,monospace" font-size="14.00">[o&#45;o]:0.3333333333333333</text>
<text xml:space="preserve" text-anchor="middle" x="1962.84" y="-195.2" font-family="Courier,monospace" font-size="14.00">[no edge]:0.16666666666666666</text>
</g>
<!-- shape -->
<g id="node6" class="node">
<title>shape</title>
<ellipse fill="none" stroke="black" cx="1573.78" cy="-156" rx="31.9" ry="18"/>
<text xml:space="preserve" text-anchor="middle" x="1573.78" y="-150.95" font-family="Times New Roman,serif" font-size="14.00">shape</text>
</g>
<!-- meanImprovements&#45;&gt;shape -->
<g id="edge9" class="edge">
<title>meanImprovements&#45;&gt;shape</title>
<path fill="none" stroke="black" d="M1573.78,-280.54C1573.78,-252.47 1573.78,-210.28 1573.78,-183.19"/>
<polygon fill="black" stroke="black" points="1570.28,-280.49 1573.78,-290.49 1577.28,-280.49 1570.28,-280.49"/>
<ellipse fill="none" stroke="black" cx="1573.78" cy="-178.79" rx="4" ry="4"/>
<text xml:space="preserve" text-anchor="middle" x="1676.91" y="-261.2" font-family="Courier,monospace" font-size="14.00">meanImprovements &#45; shape</text>
<text xml:space="preserve" text-anchor="middle" x="1676.91" y="-244.7" font-family="Courier,monospace" font-size="14.00">[&#45;&#45;&gt;]:0.16666666666666666</text>
<text xml:space="preserve" text-anchor="middle" x="1676.91" y="-228.2" font-family="Courier,monospace" font-size="14.00">[&lt;&#45;o]:0.3333333333333333</text>
<text xml:space="preserve" text-anchor="middle" x="1676.91" y="-211.7" font-family="Courier,monospace" font-size="14.00">[o&#45;o]:0.3333333333333333</text>
<text xml:space="preserve" text-anchor="middle" x="1676.91" y="-195.2" font-family="Courier,monospace" font-size="14.00">[o&#45;&gt;]:0.16666666666666666</text>
</g>
<!-- eccentricity -->
<g id="node3" class="node">
<title>eccentricity</title>
<ellipse fill="none" stroke="black" cx="1827.78" cy="-448.5" rx="53.91" ry="18"/>
<text xml:space="preserve" text-anchor="middle" x="1827.78" y="-443.45" font-family="Times New Roman,serif" font-size="14.00">eccentricity</text>
</g>
<!-- kl_unif -->
<g id="node4" class="node">
<title>kl_unif</title>
<ellipse fill="none" stroke="black" cx="1827.78" cy="-310.5" rx="37.53" ry="18"/>
<text xml:space="preserve" text-anchor="middle" x="1827.78" y="-305.45" font-family="Times New Roman,serif" font-size="14.00">kl_unif</text>
</g>
<!-- eccentricity&#45;&gt;kl_unif -->
<g id="edge2" class="edge">
<title>eccentricity&#45;&gt;kl_unif</title>
<path fill="none" stroke="black" d="M1827.78,-421.28C1827.78,-397.15 1827.78,-361.56 1827.78,-337.5"/>
<ellipse fill="none" stroke="black" cx="1827.78" cy="-425.78" rx="4" ry="4"/>
<ellipse fill="none" stroke="black" cx="1827.78" cy="-333.08" rx="4" ry="4"/>
<text xml:space="preserve" text-anchor="middle" x="1918.53" y="-382.7" font-family="Courier,monospace" font-size="14.00">eccentricity &#45; kl_unif</text>
<text xml:space="preserve" text-anchor="middle" x="1918.53" y="-366.2" font-family="Courier,monospace" font-size="14.00">[o&#45;o]:1.0</text>
</g>
<!-- varPop -->
<g id="node7" class="node">
<title>varPop</title>
<ellipse fill="none" stroke="black" cx="1573.78" cy="-18" rx="37.02" ry="18"/>
<text xml:space="preserve" text-anchor="middle" x="1573.78" y="-12.95" font-family="Times New Roman,serif" font-size="14.00">varPop</text>
</g>
<!-- shape&#45;&gt;varPop -->
<g id="edge4" class="edge">
<title>shape&#45;&gt;varPop</title>
<path fill="none" stroke="black" d="M1573.78,-128.78C1573.78,-104.65 1573.78,-69.06 1573.78,-45"/>
<ellipse fill="none" stroke="black" cx="1573.78" cy="-133.28" rx="4" ry="4"/>
<ellipse fill="none" stroke="black" cx="1573.78" cy="-40.58" rx="4" ry="4"/>
<text xml:space="preserve" text-anchor="middle" x="1676.91" y="-106.7" font-family="Courier,monospace" font-size="14.00">shape &#45; varPop</text>
<text xml:space="preserve" text-anchor="middle" x="1676.91" y="-90.2" font-family="Courier,monospace" font-size="14.00">[&#45;&#45;&gt;]:0.3333333333333333</text>
<text xml:space="preserve" text-anchor="middle" x="1676.91" y="-73.7" font-family="Courier,monospace" font-size="14.00">[o&#45;&gt;]:0.16666666666666666</text>
<text xml:space="preserve" text-anchor="middle" x="1676.91" y="-57.2" font-family="Courier,monospace" font-size="14.00">[o&#45;o]:0.5</text>
</g>
<!-- dist_to_opt -->
<g id="node8" class="node">
<title>dist_to_opt</title>
<ellipse fill="none" stroke="black" cx="2032.78" cy="-448.5" rx="52.38" ry="18"/>
<text xml:space="preserve" text-anchor="middle" x="2032.78" y="-443.45" font-family="Times New Roman,serif" font-size="14.00">dist_to_opt</text>
</g>
<!-- ratio -->
<g id="node9" class="node">
<title>ratio</title>
<ellipse fill="none" stroke="black" cx="2122.78" cy="-310.5" rx="27.81" ry="18"/>
<text xml:space="preserve" text-anchor="middle" x="2122.78" y="-305.45" font-family="Times New Roman,serif" font-size="14.00">ratio</text>
</g>
<!-- dist_to_opt&#45;&gt;ratio -->
<g id="edge5" class="edge">
<title>dist_to_opt&#45;&gt;ratio</title>
<path fill="none" stroke="black" d="M2025.69,-421.63C2021.28,-399.68 2018.96,-368.35 2034.03,-346.5 2045.4,-330.01 2065.83,-321.29 2084.22,-316.68"/>
<ellipse fill="none" stroke="black" cx="2026.67" cy="-426.02" rx="4" ry="4"/>
<polygon fill="black" stroke="black" points="2084.79,-320.14 2093.83,-314.62 2083.32,-313.29 2084.79,-320.14"/>
<text xml:space="preserve" text-anchor="middle" x="2112.41" y="-382.7" font-family="Courier,monospace" font-size="14.00">dist_to_opt &#45; ratio</text>
<text xml:space="preserve" text-anchor="middle" x="2112.41" y="-366.2" font-family="Courier,monospace" font-size="14.00">[o&#45;&gt;]:1.0</text>
</g>
<!-- extension -->
<g id="node10" class="node">
<title>extension</title>
<ellipse fill="none" stroke="black" cx="1573.78" cy="-448.5" rx="46.23" ry="18"/>
<text xml:space="preserve" text-anchor="middle" x="1573.78" y="-443.45" font-family="Times New Roman,serif" font-size="14.00">extension</text>
</g>
<!-- extension&#45;&gt;meanImprovements -->
<g id="edge6" class="edge">
<title>extension&#45;&gt;meanImprovements</title>
<path fill="none" stroke="black" d="M1573.78,-421.28C1573.78,-397.15 1573.78,-361.56 1573.78,-337.5"/>
<ellipse fill="none" stroke="black" cx="1573.78" cy="-425.78" rx="4" ry="4"/>
<ellipse fill="none" stroke="black" cx="1573.78" cy="-333.08" rx="4" ry="4"/>
<text xml:space="preserve" text-anchor="middle" x="1689.28" y="-399.2" font-family="Courier,monospace" font-size="14.00">extension &#45; meanImprovements</text>
<text xml:space="preserve" text-anchor="middle" x="1689.28" y="-382.7" font-family="Courier,monospace" font-size="14.00">[o&#45;o]:0.3333333333333333</text>
<text xml:space="preserve" text-anchor="middle" x="1689.28" y="-366.2" font-family="Courier,monospace" font-size="14.00">[o&#45;&gt;]:0.3333333333333333</text>
<text xml:space="preserve" text-anchor="middle" x="1689.28" y="-349.7" font-family="Courier,monospace" font-size="14.00">[no edge]:0.3333333333333333</text>
</g>
<!-- best -->
<g id="node11" class="node">
<title>best</title>
<ellipse fill="none" stroke="black" cx="2339.78" cy="-448.5" rx="27" ry="18"/>
<text xml:space="preserve" text-anchor="middle" x="2339.78" y="-443.45" font-family="Times New Roman,serif" font-size="14.00">best</text>
</g>
<!-- best&#45;&gt;ratio -->
<g id="edge7" class="edge">
<title>best&#45;&gt;ratio</title>
<path fill="none" stroke="black" d="M2303.7,-447.07C2274.63,-444.77 2234.64,-436.92 2209.78,-412.5 2188.01,-391.1 2210.16,-370.08 2190.78,-346.5 2182.33,-336.21 2170.06,-328.61 2158.27,-323.17"/>
<ellipse fill="none" stroke="black" cx="2307.85" cy="-447.33" rx="4" ry="4"/>
<polygon fill="black" stroke="black" points="2159.67,-319.97 2149.09,-319.35 2156.98,-326.43 2159.67,-319.97"/>
<text xml:space="preserve" text-anchor="middle" x="2325.28" y="-390.95" font-family="Courier,monospace" font-size="14.00">best &#45; ratio</text>
<text xml:space="preserve" text-anchor="middle" x="2325.28" y="-374.45" font-family="Courier,monospace" font-size="14.00">[o&#45;&gt;]:0.6666666666666666</text>
<text xml:space="preserve" text-anchor="middle" x="2325.28" y="-357.95" font-family="Courier,monospace" font-size="14.00">[no edge]:0.3333333333333333</text>
</g>
<!-- error -->
<g id="node20" class="node">
<title>error</title>
<ellipse fill="none" stroke="black" cx="2466.78" cy="-310.5" rx="28.83" ry="18"/>
<text xml:space="preserve" text-anchor="middle" x="2466.78" y="-305.45" font-family="Times New Roman,serif" font-size="14.00">error</text>
</g>
<!-- best&#45;&gt;error -->
<g id="edge15" class="edge">
<title>best&#45;&gt;error</title>
<path fill="none" stroke="black" d="M2375.44,-444.53C2398.43,-440.71 2427.22,-432.06 2444.78,-412.5 2463.12,-392.08 2467.4,-360.01 2467.88,-337.5"/>
<ellipse fill="none" stroke="black" cx="2371.08" cy="-445.16" rx="4" ry="4"/>
<ellipse fill="none" stroke="black" cx="2467.88" cy="-333.3" rx="4" ry="4"/>
<text xml:space="preserve" text-anchor="middle" x="2587.1" y="-390.95" font-family="Courier,monospace" font-size="14.00">best &#45; error</text>
<text xml:space="preserve" text-anchor="middle" x="2587.1" y="-374.45" font-family="Courier,monospace" font-size="14.00">[o&#45;o]:0.8333333333333334</text>
<text xml:space="preserve" text-anchor="middle" x="2587.1" y="-357.95" font-family="Courier,monospace" font-size="14.00">[no edge]:0.16666666666666666</text>
</g>
<!-- avgCR -->
<g id="node12" class="node">
<title>avgCR</title>
<ellipse fill="none" stroke="black" cx="2728.78" cy="-448.5" rx="36.51" ry="18"/>
<text xml:space="preserve" text-anchor="middle" x="2728.78" y="-443.45" font-family="Times New Roman,serif" font-size="14.00">avgCR</text>
</g>
<!-- genMutatedComponent -->
<g id="node13" class="node">
<title>genMutatedComponent</title>
<ellipse fill="none" stroke="black" cx="2728.78" cy="-310.5" rx="98.95" ry="18"/>
<text xml:space="preserve" text-anchor="middle" x="2728.78" y="-305.45" font-family="Times New Roman,serif" font-size="14.00">genMutatedComponent</text>
</g>
<!-- avgCR&#45;&gt;genMutatedComponent -->
<g id="edge8" class="edge">
<title>avgCR&#45;&gt;genMutatedComponent</title>
<path fill="none" stroke="black" d="M2728.78,-421.28C2728.78,-397.15 2728.78,-361.56 2728.78,-337.5"/>
<ellipse fill="none" stroke="black" cx="2728.78" cy="-425.78" rx="4" ry="4"/>
<ellipse fill="none" stroke="black" cx="2728.78" cy="-333.08" rx="4" ry="4"/>
<text xml:space="preserve" text-anchor="middle" x="2840.16" y="-382.7" font-family="Courier,monospace" font-size="14.00">avgCR &#45; genMutatedComponent</text>
<text xml:space="preserve" text-anchor="middle" x="2840.16" y="-366.2" font-family="Courier,monospace" font-size="14.00">[o&#45;o]:1.0</text>
</g>
<!-- genInfeasibleElement -->
<g id="node14" class="node">
<title>genInfeasibleElement</title>
<ellipse fill="none" stroke="black" cx="91.78" cy="-310.5" rx="91.78" ry="18"/>
<text xml:space="preserve" text-anchor="middle" x="91.78" y="-305.45" font-family="Times New Roman,serif" font-size="14.00">genInfeasibleElement</text>
</g>
<!-- pop_size -->
<g id="node15" class="node">
<title>pop_size</title>
<ellipse fill="none" stroke="black" cx="370.78" cy="-156" rx="43.67" ry="18"/>
<text xml:space="preserve" text-anchor="middle" x="370.78" y="-150.95" font-family="Times New Roman,serif" font-size="14.00">pop_size</text>
</g>
<!-- genInfeasibleElement&#45;&gt;pop_size -->
<g id="edge10" class="edge">
<title>genInfeasibleElement&#45;&gt;pop_size</title>
<path fill="none" stroke="black" d="M87.99,-283.45C85.68,-256.6 86.9,-215.46 111.03,-192 139.26,-164.57 247.95,-158.23 315.47,-157"/>
<ellipse fill="none" stroke="black" cx="88.45" cy="-287.82" rx="4" ry="4"/>
<polygon fill="black" stroke="black" points="315.29,-160.5 325.24,-156.86 315.19,-153.5 315.29,-160.5"/>
<text xml:space="preserve" text-anchor="middle" x="238.91" y="-252.95" font-family="Courier,monospace" font-size="14.00">genInfeasibleElement &#45; pop_size</text>
<text xml:space="preserve" text-anchor="middle" x="238.91" y="-236.45" font-family="Courier,monospace" font-size="14.00">[o&#45;&gt;]:0.3333333333333333</text>
<text xml:space="preserve" text-anchor="middle" x="238.91" y="-219.95" font-family="Courier,monospace" font-size="14.00">[o&#45;o]:0.3333333333333333</text>
<text xml:space="preserve" text-anchor="middle" x="238.91" y="-203.45" font-family="Courier,monospace" font-size="14.00">[&lt;&#45;&#45;]:0.3333333333333333</text>
</g>
<!-- it -->
<g id="node16" class="node">
<title>it</title>
<ellipse fill="none" stroke="black" cx="820.78" cy="-310.5" rx="27" ry="18"/>
<text xml:space="preserve" text-anchor="middle" x="820.78" y="-305.45" font-family="Times New Roman,serif" font-size="14.00">it</text>
</g>
<!-- it&#45;&gt;stdF -->
<g id="edge12" class="edge">
<title>it&#45;&gt;stdF</title>
<path fill="none" stroke="black" d="M859.16,-307.84C912.05,-304.76 1003.58,-296.36 1027.78,-274.5 1056.01,-249.01 1023.55,-218.81 1050.53,-192 1075.37,-167.32 1115.63,-159.53 1144.83,-157.32"/>
<polygon fill="black" stroke="black" points="859.18,-304.33 849.38,-308.37 859.55,-311.32 859.18,-304.33"/>
<ellipse fill="none" stroke="black" cx="1149.01" cy="-157.07" rx="4" ry="4"/>
<text xml:space="preserve" text-anchor="middle" x="1170.16" y="-252.95" font-family="Courier,monospace" font-size="14.00">it &#45; stdF</text>
<text xml:space="preserve" text-anchor="middle" x="1170.16" y="-236.45" font-family="Courier,monospace" font-size="14.00">[&lt;&#45;o]:0.5</text>
<text xml:space="preserve" text-anchor="middle" x="1170.16" y="-219.95" font-family="Courier,monospace" font-size="14.00">[&lt;&#45;&gt;]:0.3333333333333333</text>
<text xml:space="preserve" text-anchor="middle" x="1170.16" y="-203.45" font-family="Courier,monospace" font-size="14.00">[no edge]:0.16666666666666666</text>
</g>
<!-- it&#45;&gt;pop_size -->
<g id="edge13" class="edge">
<title>it&#45;&gt;pop_size</title>
<path fill="none" stroke="black" d="M782.35,-307.26C729.29,-303.48 637.12,-294.23 610.53,-274.5 577.69,-250.13 602.51,-216.52 569.78,-192 547.4,-175.23 475.71,-165.77 424.81,-161.02"/>
<polygon fill="black" stroke="black" points="781.95,-310.74 792.16,-307.92 782.42,-303.76 781.95,-310.74"/>
<polygon fill="black" stroke="black" points="425.43,-157.57 415.15,-160.16 424.8,-164.54 425.43,-157.57"/>
<text xml:space="preserve" text-anchor="middle" x="713.66" y="-252.95" font-family="Courier,monospace" font-size="14.00">it &#45; pop_size</text>
<text xml:space="preserve" text-anchor="middle" x="713.66" y="-236.45" font-family="Courier,monospace" font-size="14.00">[&lt;&#45;o]:0.16666666666666666</text>
<text xml:space="preserve" text-anchor="middle" x="713.66" y="-219.95" font-family="Courier,monospace" font-size="14.00">[&lt;&#45;&gt;]:0.6666666666666666</text>
<text xml:space="preserve" text-anchor="middle" x="713.66" y="-203.45" font-family="Courier,monospace" font-size="14.00">[o&#45;o]:0.16666666666666666</text>
</g>
<!-- stdCR -->
<g id="node17" class="node">
<title>stdCR</title>
<ellipse fill="none" stroke="black" cx="820.78" cy="-156" rx="33.95" ry="18"/>
<text xml:space="preserve" text-anchor="middle" x="820.78" y="-150.95" font-family="Times New Roman,serif" font-size="14.00">stdCR</text>
</g>
<!-- it&#45;&gt;stdCR -->
<g id="edge11" class="edge">
<title>it&#45;&gt;stdCR</title>
<path fill="none" stroke="black" d="M820.78,-292.01C820.78,-266.04 820.78,-217 820.78,-185.71"/>
<polygon fill="black" stroke="black" points="824.28,-185.8 820.78,-175.8 817.28,-185.8 824.28,-185.8"/>
<text xml:space="preserve" text-anchor="middle" x="923.91" y="-252.95" font-family="Courier,monospace" font-size="14.00">it &#45; stdCR</text>
<text xml:space="preserve" text-anchor="middle" x="923.91" y="-236.45" font-family="Courier,monospace" font-size="14.00">[o&#45;&gt;]:0.16666666666666666</text>
<text xml:space="preserve" text-anchor="middle" x="923.91" y="-219.95" font-family="Courier,monospace" font-size="14.00">[&lt;&#45;o]:0.16666666666666666</text>
<text xml:space="preserve" text-anchor="middle" x="923.91" y="-203.45" font-family="Courier,monospace" font-size="14.00">[&#45;&#45;&gt;]:0.6666666666666666</text>
</g>
<!-- avgF -->
<g id="node18" class="node">
<title>avgF</title>
<ellipse fill="none" stroke="black" cx="2974.78" cy="-448.5" rx="29.34" ry="18"/>
<text xml:space="preserve" text-anchor="middle" x="2974.78" y="-443.45" font-family="Times New Roman,serif" font-size="14.00">avgF</text>
</g>
<!-- prob_infeas -->
<g id="node19" class="node">
<title>prob_infeas</title>
<ellipse fill="none" stroke="black" cx="2974.78" cy="-310.5" rx="54.42" ry="18"/>
<text xml:space="preserve" text-anchor="middle" x="2974.78" y="-305.45" font-family="Times New Roman,serif" font-size="14.00">prob_infeas</text>
</g>
<!-- avgF&#45;&gt;prob_infeas -->
<g id="edge14" class="edge">
<title>avgF&#45;&gt;prob_infeas</title>
<path fill="none" stroke="black" d="M2974.78,-421.28C2974.78,-397.15 2974.78,-361.56 2974.78,-337.5"/>
<ellipse fill="none" stroke="black" cx="2974.78" cy="-425.78" rx="4" ry="4"/>
<ellipse fill="none" stroke="black" cx="2974.78" cy="-333.08" rx="4" ry="4"/>
<text xml:space="preserve" text-anchor="middle" x="3073.78" y="-390.95" font-family="Courier,monospace" font-size="14.00">avgF &#45; prob_infeas</text>
<text xml:space="preserve" text-anchor="middle" x="3073.78" y="-374.45" font-family="Courier,monospace" font-size="14.00">[o&#45;o]:0.6666666666666666</text>
<text xml:space="preserve" text-anchor="middle" x="3073.78" y="-357.95" font-family="Courier,monospace" font-size="14.00">[o&#45;&gt;]:0.3333333333333333</text>
</g>
<!-- eps -->
<g id="node21" class="node">
<title>eps</title>
<ellipse fill="none" stroke="black" cx="370.78" cy="-310.5" rx="27" ry="18"/>
<text xml:space="preserve" text-anchor="middle" x="370.78" y="-305.45" font-family="Times New Roman,serif" font-size="14.00">eps</text>
</g>
<!-- eps&#45;&gt;pop_size -->
<g id="edge16" class="edge">
<title>eps&#45;&gt;pop_size</title>
<path fill="none" stroke="black" d="M370.78,-283.4C370.78,-256.24 370.78,-213.83 370.78,-185.73"/>
<ellipse fill="none" stroke="black" cx="370.78" cy="-287.51" rx="4" ry="4"/>
<polygon fill="black" stroke="black" points="374.28,-185.8 370.78,-175.8 367.28,-185.8 374.28,-185.8"/>
<text xml:space="preserve" text-anchor="middle" x="469.78" y="-244.7" font-family="Courier,monospace" font-size="14.00">eps &#45; pop_size</text>
<text xml:space="preserve" text-anchor="middle" x="469.78" y="-228.2" font-family="Courier,monospace" font-size="14.00">[o&#45;o]:0.3333333333333333</text>
<text xml:space="preserve" text-anchor="middle" x="469.78" y="-211.7" font-family="Courier,monospace" font-size="14.00">[o&#45;&gt;]:0.6666666666666666</text>
</g>
</g>
</svg>
