<?xml version="1.0" encoding="UTF-8" standalone="no"?>
<!DOCTYPE svg PUBLIC "-//W3C//DTD SVG 1.1//EN"
 "http://www.w3.org/Graphics/SVG/1.1/DTD/svg11.dtd">
<!-- Generated by graphviz version 14.0.0 (20250921.2048)
 -->
<!-- Title: g Pages: 1 -->
<svg width="3549pt" height="400pt"
 viewBox="0.00 0.00 3549.00 400.00" xmlns="http://www.w3.org/2000/svg" xmlns:xlink="http://www.w3.org/1999/xlink">
<g id="graph0" class="graph" transform="scale(1 1) rotate(0) translate(4 395.5)">
<title>g</title>
<polygon fill="white" stroke="none" points="-4,4 -4,-395.5 3545.39,-395.5 3545.39,4 -4,4"/>
<!-- dist_to_opt -->
<g id="node1" class="node">
<title>dist_to_opt</title>
<ellipse fill="none" stroke="black" cx="77.39" cy="-373.5" rx="52.38" ry="18"/>
<text xml:space="preserve" text-anchor="middle" x="77.39" y="-368.45" font-family="Times New Roman,serif" font-size="14.00">dist_to_opt</text>
</g>
<!-- kl_unif -->
<g id="node2" class="node">
<title>kl_unif</title>
<ellipse fill="none" stroke="black" cx="231.39" cy="-18" rx="37.53" ry="18"/>
<text xml:space="preserve" text-anchor="middle" x="231.39" y="-12.95" font-family="Times New Roman,serif" font-size="14.00">kl_unif</text>
</g>
<!-- dist_to_opt&#45;&gt;kl_unif -->
<g id="edge1" class="edge">
<title>dist_to_opt&#45;&gt;kl_unif</title>
<path fill="none" stroke="black" d="M57.22,-346.6C26.9,-304.25 -23.28,-218.51 12.39,-154.5 52.65,-82.25 149.09,-43.66 199.49,-27.81"/>
<polygon fill="black" stroke="black" points="54.26,-348.47 63,-354.45 59.9,-344.33 54.26,-348.47"/>
<text xml:space="preserve" text-anchor="middle" x="127.89" y="-223.7" font-family="Courier,monospace" font-size="14.00">dist_to_opt &#45; kl_unif</text>
<text xml:space="preserve" text-anchor="middle" x="127.89" y="-207.2" font-family="Courier,monospace" font-size="14.00">[&lt;&#45;&#45;]:0.3333333333333333</text>
<text xml:space="preserve" text-anchor="middle" x="127.89" y="-190.7" font-family="Courier,monospace" font-size="14.00">[&#45;&#45;&gt;]:0.16666666666666666</text>
<text xml:space="preserve" text-anchor="middle" x="127.89" y="-174.2" font-family="Courier,monospace" font-size="14.00">[&lt;&#45;&gt;]:0.16666666666666666</text>
<text xml:space="preserve" text-anchor="middle" x="127.89" y="-157.7" font-family="Courier,monospace" font-size="14.00">[no edge]:0.3333333333333333</text>
</g>
<!-- extension -->
<g id="node3" class="node">
<title>extension</title>
<ellipse fill="none" stroke="black" cx="298.39" cy="-195.75" rx="46.23" ry="18"/>
<text xml:space="preserve" text-anchor="middle" x="298.39" y="-190.7" font-family="Times New Roman,serif" font-size="14.00">extension</text>
</g>
<!-- dist_to_opt&#45;&gt;extension -->
<g id="edge2" class="edge">
<title>dist_to_opt&#45;&gt;extension</title>
<path fill="none" stroke="black" d="M104.21,-351.17C146.12,-317.84 226.78,-253.7 269.77,-219.51"/>
<ellipse fill="none" stroke="black" cx="100.91" cy="-353.79" rx="4" ry="4"/>
<polygon fill="black" stroke="black" points="271.76,-222.4 277.41,-213.44 267.4,-216.92 271.76,-222.4"/>
<text xml:space="preserve" text-anchor="middle" x="323.72" y="-324.2" font-family="Courier,monospace" font-size="14.00">dist_to_opt &#45; extension</text>
<text xml:space="preserve" text-anchor="middle" x="323.72" y="-307.7" font-family="Courier,monospace" font-size="14.00">[o&#45;o]:0.16666666666666666</text>
<text xml:space="preserve" text-anchor="middle" x="323.72" y="-291.2" font-family="Courier,monospace" font-size="14.00">[o&#45;&gt;]:0.3333333333333333</text>
<text xml:space="preserve" text-anchor="middle" x="323.72" y="-274.7" font-family="Courier,monospace" font-size="14.00">[&lt;&#45;&#45;]:0.3333333333333333</text>
<text xml:space="preserve" text-anchor="middle" x="323.72" y="-258.2" font-family="Courier,monospace" font-size="14.00">[&lt;&#45;&gt;]:0.16666666666666666</text>
</g>
<!-- extension&#45;&gt;kl_unif -->
<g id="edge4" class="edge">
<title>extension&#45;&gt;kl_unif</title>
<path fill="none" stroke="black" d="M266.21,-175.28C253.09,-165.45 239.32,-152.25 232.14,-136.5 219.26,-108.27 221.42,-72.1 225.29,-47.4"/>
<ellipse fill="none" stroke="black" cx="269.73" cy="-177.78" rx="4" ry="4"/>
<polygon fill="black" stroke="black" points="228.7,-48.23 227.01,-37.77 221.81,-47 228.7,-48.23"/>
<text xml:space="preserve" text-anchor="middle" x="335.26" y="-114.95" font-family="Courier,monospace" font-size="14.00">extension &#45; kl_unif</text>
<text xml:space="preserve" text-anchor="middle" x="335.26" y="-98.45" font-family="Courier,monospace" font-size="14.00">[&#45;&#45;&gt;]:0.3333333333333333</text>
<text xml:space="preserve" text-anchor="middle" x="335.26" y="-81.95" font-family="Courier,monospace" font-size="14.00">[&lt;&#45;&gt;]:0.16666666666666666</text>
<text xml:space="preserve" text-anchor="middle" x="335.26" y="-65.45" font-family="Courier,monospace" font-size="14.00">[o&#45;&gt;]:0.5</text>
</g>
<!-- shape -->
<g id="node4" class="node">
<title>shape</title>
<ellipse fill="none" stroke="black" cx="1974.39" cy="-195.75" rx="31.9" ry="18"/>
<text xml:space="preserve" text-anchor="middle" x="1974.39" y="-190.7" font-family="Times New Roman,serif" font-size="14.00">shape</text>
</g>
<!-- varPop -->
<g id="node5" class="node">
<title>varPop</title>
<ellipse fill="none" stroke="black" cx="1847.39" cy="-18" rx="37.02" ry="18"/>
<text xml:space="preserve" text-anchor="middle" x="1847.39" y="-12.95" font-family="Times New Roman,serif" font-size="14.00">varPop</text>
</g>
<!-- shape&#45;&gt;varPop -->
<g id="edge3" class="edge">
<title>shape&#45;&gt;varPop</title>
<path fill="none" stroke="black" d="M1973.36,-166.2C1971.5,-130.06 1966.34,-70.5 1952.39,-54 1938.2,-37.23 1915.74,-28.45 1895.23,-23.88"/>
<polygon fill="black" stroke="black" points="1969.86,-166.12 1973.81,-175.95 1976.85,-165.8 1969.86,-166.12"/>
<polygon fill="black" stroke="black" points="1896.07,-20.48 1885.59,-22.03 1894.75,-27.35 1896.07,-20.48"/>
<text xml:space="preserve" text-anchor="middle" x="2074.18" y="-114.95" font-family="Courier,monospace" font-size="14.00">shape &#45; varPop</text>
<text xml:space="preserve" text-anchor="middle" x="2074.18" y="-98.45" font-family="Courier,monospace" font-size="14.00">[o&#45;&gt;]:0.16666666666666666</text>
<text xml:space="preserve" text-anchor="middle" x="2074.18" y="-81.95" font-family="Courier,monospace" font-size="14.00">[&lt;&#45;&gt;]:0.6666666666666666</text>
<text xml:space="preserve" text-anchor="middle" x="2074.18" y="-65.45" font-family="Courier,monospace" font-size="14.00">[&lt;&#45;o]:0.16666666666666666</text>
</g>
<!-- meanImprovements -->
<g id="node6" class="node">
<title>meanImprovements</title>
<ellipse fill="none" stroke="black" cx="2967.39" cy="-373.5" rx="85.64" ry="18"/>
<text xml:space="preserve" text-anchor="middle" x="2967.39" y="-368.45" font-family="Times New Roman,serif" font-size="14.00">meanImprovements</text>
</g>
<!-- ratio -->
<g id="node7" class="node">
<title>ratio</title>
<ellipse fill="none" stroke="black" cx="3082.39" cy="-195.75" rx="27.81" ry="18"/>
<text xml:space="preserve" text-anchor="middle" x="3082.39" y="-190.7" font-family="Times New Roman,serif" font-size="14.00">ratio</text>
</g>
<!-- meanImprovements&#45;&gt;ratio -->
<g id="edge5" class="edge">
<title>meanImprovements&#45;&gt;ratio</title>
<path fill="none" stroke="black" d="M2957.97,-346.89C2950.19,-320.83 2943.45,-280.71 2964.14,-255 2987.6,-225.85 3014.07,-255.86 3046.39,-237 3053.88,-232.63 3060.66,-226.16 3066.26,-219.68"/>
<ellipse fill="none" stroke="black" cx="2959.24" cy="-350.86" rx="4" ry="4"/>
<ellipse fill="none" stroke="black" cx="3069.03" cy="-216.24" rx="4" ry="4"/>
<text xml:space="preserve" text-anchor="middle" x="3067.26" y="-315.95" font-family="Courier,monospace" font-size="14.00">meanImprovements &#45; ratio</text>
<text xml:space="preserve" text-anchor="middle" x="3067.26" y="-299.45" font-family="Courier,monospace" font-size="14.00">[o&#45;o]:0.5</text>
<text xml:space="preserve" text-anchor="middle" x="3067.26" y="-282.95" font-family="Courier,monospace" font-size="14.00">[&#45;&#45;&gt;]:0.3333333333333333</text>
<text xml:space="preserve" text-anchor="middle" x="3067.26" y="-266.45" font-family="Courier,monospace" font-size="14.00">[&lt;&#45;o]:0.16666666666666666</text>
</g>
<!-- avgCR -->
<g id="node8" class="node">
<title>avgCR</title>
<ellipse fill="none" stroke="black" cx="3000.39" cy="-195.75" rx="36.51" ry="18"/>
<text xml:space="preserve" text-anchor="middle" x="3000.39" y="-190.7" font-family="Times New Roman,serif" font-size="14.00">avgCR</text>
</g>
<!-- stdCR -->
<g id="node9" class="node">
<title>stdCR</title>
<ellipse fill="none" stroke="black" cx="3123.39" cy="-18" rx="33.95" ry="18"/>
<text xml:space="preserve" text-anchor="middle" x="3123.39" y="-12.95" font-family="Times New Roman,serif" font-size="14.00">stdCR</text>
</g>
<!-- avgCR&#45;&gt;stdCR -->
<g id="edge6" class="edge">
<title>avgCR&#45;&gt;stdCR</title>
<path fill="none" stroke="black" d="M3022.94,-171.25C3029.71,-165.16 3037.46,-159.04 3045.39,-154.5 3068.07,-141.5 3084.1,-156.11 3101.39,-136.5 3123.51,-111.4 3126.49,-71.32 3125.67,-45.08"/>
<polygon fill="black" stroke="black" points="3020.89,-168.37 3016.05,-177.79 3025.71,-173.45 3020.89,-168.37"/>
<ellipse fill="none" stroke="black" cx="3125.45" cy="-40.58" rx="4" ry="4"/>
<text xml:space="preserve" text-anchor="middle" x="3241.28" y="-114.95" font-family="Courier,monospace" font-size="14.00">avgCR &#45; stdCR</text>
<text xml:space="preserve" text-anchor="middle" x="3241.28" y="-98.45" font-family="Courier,monospace" font-size="14.00">[&lt;&#45;&#45;]:0.16666666666666666</text>
<text xml:space="preserve" text-anchor="middle" x="3241.28" y="-81.95" font-family="Courier,monospace" font-size="14.00">[&lt;&#45;o]:0.5</text>
<text xml:space="preserve" text-anchor="middle" x="3241.28" y="-65.45" font-family="Courier,monospace" font-size="14.00">[no edge]:0.3333333333333333</text>
</g>
<!-- genMutatedComponent -->
<g id="node10" class="node">
<title>genMutatedComponent</title>
<ellipse fill="none" stroke="black" cx="2692.39" cy="-18" rx="98.95" ry="18"/>
<text xml:space="preserve" text-anchor="middle" x="2692.39" y="-12.95" font-family="Times New Roman,serif" font-size="14.00">genMutatedComponent</text>
</g>
<!-- avgCR&#45;&gt;genMutatedComponent -->
<g id="edge7" class="edge">
<title>avgCR&#45;&gt;genMutatedComponent</title>
<path fill="none" stroke="black" d="M2956.08,-184.8C2928.72,-176.4 2895.06,-161.59 2874.64,-136.5 2850.87,-107.3 2882.25,-80.39 2855.39,-54 2844.44,-43.25 2814.6,-35.4 2783.39,-29.89"/>
<polygon fill="black" stroke="black" points="2954.95,-188.11 2965.53,-187.5 2956.88,-181.38 2954.95,-188.11"/>
<ellipse fill="none" stroke="black" cx="2779.01" cy="-29.15" rx="4" ry="4"/>
<text xml:space="preserve" text-anchor="middle" x="2986.01" y="-123.2" font-family="Courier,monospace" font-size="14.00">avgCR &#45; genMutatedComponent</text>
<text xml:space="preserve" text-anchor="middle" x="2986.01" y="-106.7" font-family="Courier,monospace" font-size="14.00">[&lt;&#45;&gt;]:0.16666666666666666</text>
<text xml:space="preserve" text-anchor="middle" x="2986.01" y="-90.2" font-family="Courier,monospace" font-size="14.00">[&lt;&#45;&#45;]:0.16666666666666666</text>
<text xml:space="preserve" text-anchor="middle" x="2986.01" y="-73.7" font-family="Courier,monospace" font-size="14.00">[o&#45;o]:0.16666666666666666</text>
<text xml:space="preserve" text-anchor="middle" x="2986.01" y="-57.2" font-family="Courier,monospace" font-size="14.00">[&lt;&#45;o]:0.5</text>
</g>
<!-- eps -->
<g id="node11" class="node">
<title>eps</title>
<ellipse fill="none" stroke="black" cx="1974.39" cy="-373.5" rx="27" ry="18"/>
<text xml:space="preserve" text-anchor="middle" x="1974.39" y="-368.45" font-family="Times New Roman,serif" font-size="14.00">eps</text>
</g>
<!-- eps&#45;&gt;shape -->
<g id="edge8" class="edge">
<title>eps&#45;&gt;shape</title>
<path fill="none" stroke="black" d="M1974.39,-346.42C1974.39,-314.05 1974.39,-259.03 1974.39,-225.48"/>
<ellipse fill="none" stroke="black" cx="1974.39" cy="-350.51" rx="4" ry="4"/>
<polygon fill="black" stroke="black" points="1977.89,-225.69 1974.39,-215.69 1970.89,-225.69 1977.89,-225.69"/>
<text xml:space="preserve" text-anchor="middle" x="2077.51" y="-315.95" font-family="Courier,monospace" font-size="14.00">eps &#45; shape</text>
<text xml:space="preserve" text-anchor="middle" x="2077.51" y="-299.45" font-family="Courier,monospace" font-size="14.00">[o&#45;&gt;]:0.6666666666666666</text>
<text xml:space="preserve" text-anchor="middle" x="2077.51" y="-282.95" font-family="Courier,monospace" font-size="14.00">[&lt;&#45;&gt;]:0.16666666666666666</text>
<text xml:space="preserve" text-anchor="middle" x="2077.51" y="-266.45" font-family="Courier,monospace" font-size="14.00">[o&#45;o]:0.16666666666666666</text>
</g>
<!-- avgF -->
<g id="node12" class="node">
<title>avgF</title>
<ellipse fill="none" stroke="black" cx="975.39" cy="-195.75" rx="29.34" ry="18"/>
<text xml:space="preserve" text-anchor="middle" x="975.39" y="-190.7" font-family="Times New Roman,serif" font-size="14.00">avgF</text>
</g>
<!-- stdF -->
<g id="node13" class="node">
<title>stdF</title>
<ellipse fill="none" stroke="black" cx="975.39" cy="-18" rx="27" ry="18"/>
<text xml:space="preserve" text-anchor="middle" x="975.39" y="-12.95" font-family="Times New Roman,serif" font-size="14.00">stdF</text>
</g>
<!-- avgF&#45;&gt;stdF -->
<g id="edge9" class="edge">
<title>avgF&#45;&gt;stdF</title>
<path fill="none" stroke="black" d="M975.39,-165.84C975.39,-132.35 975.39,-77.65 975.39,-45.31"/>
<polygon fill="black" stroke="black" points="971.89,-165.74 975.39,-175.74 978.89,-165.74 971.89,-165.74"/>
<ellipse fill="none" stroke="black" cx="975.39" cy="-40.92" rx="4" ry="4"/>
<text xml:space="preserve" text-anchor="middle" x="1095.01" y="-106.7" font-family="Courier,monospace" font-size="14.00">avgF &#45; stdF</text>
<text xml:space="preserve" text-anchor="middle" x="1095.01" y="-90.2" font-family="Courier,monospace" font-size="14.00">[&lt;&#45;o]:0.8333333333333334</text>
<text xml:space="preserve" text-anchor="middle" x="1095.01" y="-73.7" font-family="Courier,monospace" font-size="14.00">[no edge]:0.16666666666666666</text>
</g>
<!-- prob_infeas -->
<g id="node15" class="node">
<title>prob_infeas</title>
<ellipse fill="none" stroke="black" cx="1466.39" cy="-18" rx="54.42" ry="18"/>
<text xml:space="preserve" text-anchor="middle" x="1466.39" y="-12.95" font-family="Times New Roman,serif" font-size="14.00">prob_infeas</text>
</g>
<!-- avgF&#45;&gt;prob_infeas -->
<g id="edge16" class="edge">
<title>avgF&#45;&gt;prob_infeas</title>
<path fill="none" stroke="black" d="M1004.06,-191.25C1060.75,-183.78 1184.35,-164.66 1215.39,-136.5 1244.15,-110.41 1214.34,-78.89 1244.14,-54 1267.42,-34.56 1344.24,-25.82 1401.08,-21.96"/>
<polygon fill="black" stroke="black" points="1401.25,-25.46 1411.01,-21.33 1400.81,-18.47 1401.25,-25.46"/>
<text xml:space="preserve" text-anchor="middle" x="1347.26" y="-106.7" font-family="Courier,monospace" font-size="14.00">avgF &#45; prob_infeas</text>
<text xml:space="preserve" text-anchor="middle" x="1347.26" y="-90.2" font-family="Courier,monospace" font-size="14.00">[&#45;&#45;&gt;]:0.8333333333333334</text>
<text xml:space="preserve" text-anchor="middle" x="1347.26" y="-73.7" font-family="Courier,monospace" font-size="14.00">[&lt;&#45;o]:0.16666666666666666</text>
</g>
<!-- pop_size -->
<g id="node16" class="node">
<title>pop_size</title>
<ellipse fill="none" stroke="black" cx="713.39" cy="-18" rx="43.67" ry="18"/>
<text xml:space="preserve" text-anchor="middle" x="713.39" y="-12.95" font-family="Times New Roman,serif" font-size="14.00">pop_size</text>
</g>
<!-- avgF&#45;&gt;pop_size -->
<g id="edge11" class="edge">
<title>avgF&#45;&gt;pop_size</title>
<path fill="none" stroke="black" d="M937.5,-184.92C909.78,-176.1 872.77,-160.75 847.64,-136.5 818.14,-108.04 836.84,-81.45 806.39,-54 791.27,-40.37 770.33,-31.87 752.14,-26.67"/>
<polygon fill="black" stroke="black" points="936.35,-188.22 946.93,-187.76 938.37,-181.52 936.35,-188.22"/>
<text xml:space="preserve" text-anchor="middle" x="909.51" y="-106.7" font-family="Courier,monospace" font-size="14.00">avgF &#45; pop_size</text>
<text xml:space="preserve" text-anchor="middle" x="909.51" y="-90.2" font-family="Courier,monospace" font-size="14.00">[&lt;&#45;&#45;]:0.5</text>
<text xml:space="preserve" text-anchor="middle" x="909.51" y="-73.7" font-family="Courier,monospace" font-size="14.00">[&lt;&#45;o]:0.5</text>
</g>
<!-- eccentricity -->
<g id="node14" class="node">
<title>eccentricity</title>
<ellipse fill="none" stroke="black" cx="1593.39" cy="-195.75" rx="53.91" ry="18"/>
<text xml:space="preserve" text-anchor="middle" x="1593.39" y="-190.7" font-family="Times New Roman,serif" font-size="14.00">eccentricity</text>
</g>
<!-- eccentricity&#45;&gt;varPop -->
<g id="edge13" class="edge">
<title>eccentricity&#45;&gt;varPop</title>
<path fill="none" stroke="black" d="M1641.9,-178.1C1662.17,-168.83 1684.24,-155.29 1698.39,-136.5 1721.02,-106.44 1691.27,-81.09 1717.39,-54 1738.32,-32.28 1771.19,-23.57 1798.64,-20.26"/>
<polygon fill="black" stroke="black" points="1640.72,-174.8 1632.91,-181.97 1643.48,-181.23 1640.72,-174.8"/>
<polygon fill="black" stroke="black" points="1798.9,-23.75 1808.51,-19.3 1798.22,-16.79 1798.9,-23.75"/>
<text xml:space="preserve" text-anchor="middle" x="1832.89" y="-114.95" font-family="Courier,monospace" font-size="14.00">eccentricity &#45; varPop</text>
<text xml:space="preserve" text-anchor="middle" x="1832.89" y="-98.45" font-family="Courier,monospace" font-size="14.00">[&lt;&#45;&gt;]:0.3333333333333333</text>
<text xml:space="preserve" text-anchor="middle" x="1832.89" y="-81.95" font-family="Courier,monospace" font-size="14.00">[o&#45;&gt;]:0.3333333333333333</text>
<text xml:space="preserve" text-anchor="middle" x="1832.89" y="-65.45" font-family="Courier,monospace" font-size="14.00">[no edge]:0.3333333333333333</text>
</g>
<!-- eccentricity&#45;&gt;prob_infeas -->
<g id="edge10" class="edge">
<title>eccentricity&#45;&gt;prob_infeas</title>
<path fill="none" stroke="black" d="M1538.65,-183.75C1512.39,-175.44 1483.25,-161.07 1467.39,-136.5 1450.29,-110.01 1453.47,-72.69 1458.68,-47.26"/>
<ellipse fill="none" stroke="black" cx="1542.75" cy="-184.97" rx="4" ry="4"/>
<polygon fill="black" stroke="black" points="1462.06,-48.17 1460.89,-37.64 1455.24,-46.6 1462.06,-48.17"/>
<text xml:space="preserve" text-anchor="middle" x="1582.89" y="-114.95" font-family="Courier,monospace" font-size="14.00">eccentricity &#45; prob_infeas</text>
<text xml:space="preserve" text-anchor="middle" x="1582.89" y="-98.45" font-family="Courier,monospace" font-size="14.00">[o&#45;&gt;]:0.5</text>
<text xml:space="preserve" text-anchor="middle" x="1582.89" y="-81.95" font-family="Courier,monospace" font-size="14.00">[&#45;&#45;&gt;]:0.16666666666666666</text>
<text xml:space="preserve" text-anchor="middle" x="1582.89" y="-65.45" font-family="Courier,monospace" font-size="14.00">[no edge]:0.3333333333333333</text>
</g>
<!-- meanImprovementsMut -->
<g id="node17" class="node">
<title>meanImprovementsMut</title>
<ellipse fill="none" stroke="black" cx="3196.39" cy="-373.5" rx="101.51" ry="18"/>
<text xml:space="preserve" text-anchor="middle" x="3196.39" y="-368.45" font-family="Times New Roman,serif" font-size="14.00">meanImprovementsMut</text>
</g>
<!-- meanImprovementsMut&#45;&gt;ratio -->
<g id="edge12" class="edge">
<title>meanImprovementsMut&#45;&gt;ratio</title>
<path fill="none" stroke="black" d="M3197.28,-346.64C3196.93,-321.23 3192.95,-282.39 3174.39,-255 3159.94,-233.68 3134.81,-218.56 3114.47,-209.07"/>
<ellipse fill="none" stroke="black" cx="3197.28" cy="-350.85" rx="4" ry="4"/>
<ellipse fill="none" stroke="black" cx="3110.48" cy="-207.3" rx="4" ry="4"/>
<text xml:space="preserve" text-anchor="middle" x="3308.3" y="-315.95" font-family="Courier,monospace" font-size="14.00">meanImprovementsMut &#45; ratio</text>
<text xml:space="preserve" text-anchor="middle" x="3308.3" y="-299.45" font-family="Courier,monospace" font-size="14.00">[o&#45;o]:0.5</text>
<text xml:space="preserve" text-anchor="middle" x="3308.3" y="-282.95" font-family="Courier,monospace" font-size="14.00">[&lt;&#45;o]:0.16666666666666666</text>
<text xml:space="preserve" text-anchor="middle" x="3308.3" y="-266.45" font-family="Courier,monospace" font-size="14.00">[&lt;&#45;&gt;]:0.3333333333333333</text>
</g>
<!-- it -->
<g id="node18" class="node">
<title>it</title>
<ellipse fill="none" stroke="black" cx="599.39" cy="-195.75" rx="27" ry="18"/>
<text xml:space="preserve" text-anchor="middle" x="599.39" y="-190.7" font-family="Times New Roman,serif" font-size="14.00">it</text>
</g>
<!-- it&#45;&gt;pop_size -->
<g id="edge14" class="edge">
<title>it&#45;&gt;pop_size</title>
<path fill="none" stroke="black" d="M590.74,-167.26C582.89,-136.51 575.87,-86.72 600.14,-54 616.08,-32.51 645.03,-23.82 669.67,-20.47"/>
<polygon fill="black" stroke="black" points="587.28,-167.88 593.32,-176.58 594.02,-166.01 587.28,-167.88"/>
<text xml:space="preserve" text-anchor="middle" x="703.26" y="-114.95" font-family="Courier,monospace" font-size="14.00">it &#45; pop_size</text>
<text xml:space="preserve" text-anchor="middle" x="703.26" y="-98.45" font-family="Courier,monospace" font-size="14.00">[&lt;&#45;&#45;]:0.5</text>
<text xml:space="preserve" text-anchor="middle" x="703.26" y="-81.95" font-family="Courier,monospace" font-size="14.00">[&lt;&#45;o]:0.16666666666666666</text>
<text xml:space="preserve" text-anchor="middle" x="703.26" y="-65.45" font-family="Courier,monospace" font-size="14.00">[o&#45;o]:0.3333333333333333</text>
</g>
<!-- genInfeasibleElement -->
<g id="node19" class="node">
<title>genInfeasibleElement</title>
<ellipse fill="none" stroke="black" cx="2355.39" cy="-195.75" rx="91.78" ry="18"/>
<text xml:space="preserve" text-anchor="middle" x="2355.39" y="-190.7" font-family="Times New Roman,serif" font-size="14.00">genInfeasibleElement</text>
</g>
<!-- genInfeasibleElement&#45;&gt;genMutatedComponent -->
<g id="edge15" class="edge">
<title>genInfeasibleElement&#45;&gt;genMutatedComponent</title>
<path fill="none" stroke="black" d="M2423.73,-177.49C2446.28,-168.66 2469.61,-155.59 2485.39,-136.5 2509.39,-107.46 2477.62,-80 2504.89,-54 2518.45,-41.07 2556.67,-32.73 2595.1,-27.45"/>
<polygon fill="black" stroke="black" points="2422.71,-174.14 2414.52,-180.86 2425.12,-180.71 2422.71,-174.14"/>
<ellipse fill="none" stroke="black" cx="2599.35" cy="-26.89" rx="4" ry="4"/>
<text xml:space="preserve" text-anchor="middle" x="2678.14" y="-114.95" font-family="Courier,monospace" font-size="14.00">genInfeasibleElement &#45; genMutatedComponent</text>
<text xml:space="preserve" text-anchor="middle" x="2678.14" y="-98.45" font-family="Courier,monospace" font-size="14.00">[o&#45;o]:0.16666666666666666</text>
<text xml:space="preserve" text-anchor="middle" x="2678.14" y="-81.95" font-family="Courier,monospace" font-size="14.00">[&lt;&#45;o]:0.6666666666666666</text>
<text xml:space="preserve" text-anchor="middle" x="2678.14" y="-65.45" font-family="Courier,monospace" font-size="14.00">[&lt;&#45;&gt;]:0.16666666666666666</text>
</g>
<!-- genInfeasibleElement&#45;&gt;prob_infeas -->
<g id="edge18" class="edge">
<title>genInfeasibleElement&#45;&gt;prob_infeas</title>
<path fill="none" stroke="black" d="M2274.79,-180.37C2247.88,-171.8 2219.93,-158.17 2200.89,-136.5 2176.01,-108.2 2210.37,-78.07 2181.39,-54 2165.13,-40.5 1822.5,-37.04 1801.39,-36 1707.5,-31.39 1598.83,-25.84 1531.34,-22.36"/>
<polygon fill="black" stroke="black" points="2273.79,-183.72 2284.37,-183.2 2275.77,-177.01 2273.79,-183.72"/>
<polygon fill="black" stroke="black" points="1531.73,-18.88 1521.56,-21.86 1531.37,-25.87 1531.73,-18.88"/>
<text xml:space="preserve" text-anchor="middle" x="2341.14" y="-114.95" font-family="Courier,monospace" font-size="14.00">genInfeasibleElement &#45; prob_infeas</text>
<text xml:space="preserve" text-anchor="middle" x="2341.14" y="-98.45" font-family="Courier,monospace" font-size="14.00">[&lt;&#45;&gt;]:0.6666666666666666</text>
<text xml:space="preserve" text-anchor="middle" x="2341.14" y="-81.95" font-family="Courier,monospace" font-size="14.00">[&lt;&#45;o]:0.16666666666666666</text>
<text xml:space="preserve" text-anchor="middle" x="2341.14" y="-65.45" font-family="Courier,monospace" font-size="14.00">[no edge]:0.16666666666666666</text>
</g>
<!-- best -->
<g id="node20" class="node">
<title>best</title>
<ellipse fill="none" stroke="black" cx="3442.39" cy="-373.5" rx="27" ry="18"/>
<text xml:space="preserve" text-anchor="middle" x="3442.39" y="-368.45" font-family="Times New Roman,serif" font-size="14.00">best</text>
</g>
<!-- error -->
<g id="node21" class="node">
<title>error</title>
<ellipse fill="none" stroke="black" cx="3442.39" cy="-195.75" rx="28.83" ry="18"/>
<text xml:space="preserve" text-anchor="middle" x="3442.39" y="-190.7" font-family="Times New Roman,serif" font-size="14.00">error</text>
</g>
<!-- best&#45;&gt;error -->
<g id="edge17" class="edge">
<title>best&#45;&gt;error</title>
<path fill="none" stroke="black" d="M3442.39,-346.42C3442.39,-313.2 3442.39,-256.12 3442.39,-222.88"/>
<ellipse fill="none" stroke="black" cx="3442.39" cy="-350.51" rx="4" ry="4"/>
<ellipse fill="none" stroke="black" cx="3442.39" cy="-218.67" rx="4" ry="4"/>
<text xml:space="preserve" text-anchor="middle" x="3491.89" y="-307.7" font-family="Courier,monospace" font-size="14.00">best &#45; error</text>
<text xml:space="preserve" text-anchor="middle" x="3491.89" y="-291.2" font-family="Courier,monospace" font-size="14.00">[o&#45;o]:0.5</text>
<text xml:space="preserve" text-anchor="middle" x="3491.89" y="-274.7" font-family="Courier,monospace" font-size="14.00">[&lt;&#45;&gt;]:0.5</text>
</g>
<!-- bchm -->
<g id="node22" class="node">
<title>bchm</title>
<ellipse fill="none" stroke="black" cx="460.39" cy="-195.75" rx="31.9" ry="18"/>
<text xml:space="preserve" text-anchor="middle" x="460.39" y="-190.7" font-family="Times New Roman,serif" font-size="14.00">bchm</text>
</g>
<!-- bchm&#45;&gt;kl_unif -->
<g id="edge19" class="edge">
<title>bchm&#45;&gt;kl_unif</title>
<path fill="none" stroke="black" d="M459.85,-168.95C458.54,-132.82 454.01,-69.82 438.39,-54 416.85,-32.2 334.29,-23.94 280.17,-20.83"/>
<ellipse fill="none" stroke="black" cx="459.98" cy="-173.01" rx="4" ry="4"/>
<polygon fill="black" stroke="black" points="280.43,-17.34 270.26,-20.31 280.06,-24.33 280.43,-17.34"/>
<text xml:space="preserve" text-anchor="middle" x="515.48" y="-98.45" font-family="Courier,monospace" font-size="14.00">bchm &#45; kl_unif</text>
<text xml:space="preserve" text-anchor="middle" x="515.48" y="-81.95" font-family="Courier,monospace" font-size="14.00">[o&#45;&gt;]:1.0</text>
</g>
</g>
</svg>
